<?xml version="1.0" encoding="utf-8"?>
<!-- Generator: Adobe Illustrator 16.0.3, SVG Export Plug-In . SVG Version: 6.00 Build 0)  -->
<!DOCTYPE svg PUBLIC "-//W3C//DTD SVG 1.1//EN" "http://www.w3.org/Graphics/SVG/1.1/DTD/svg11.dtd">
<svg version="1.1" id="Default" xmlns="http://www.w3.org/2000/svg" xmlns:xlink="http://www.w3.org/1999/xlink" x="0px" y="0px"
	 width="700px" height="500px" viewBox="0 0 700 500" enable-background="new 0 0 700 500" xml:space="preserve">
<rect x="0.398" fill="#FBFAFC" width="699.602" height="500"/>
<path fill="#EAE8ED" d="M103.437,381.043c4.81,2.778,4.81,7.283,0,10.062c-4.81,2.778-12.608,2.778-17.418,0
	c-4.81-2.778-4.81-7.283,0-10.062C90.829,378.265,98.627,378.265,103.437,381.043z"/>
<path fill="#EAE8ED" d="M234.686,298.85c2.988,1.727,2.988,4.525,0,6.252c-2.988,1.726-7.833,1.726-10.821,0
	c-2.988-1.727-2.988-4.525,0-6.252C226.853,297.124,231.697,297.124,234.686,298.85z"/>
<g>
	<path fill="#EAE8ED" d="M437.892,305.987l3.114,0.61c0.256,0.05,0.537,0.023,0.753-0.069l2.636-1.136
		c0.544-0.234,1.318-0.007,1.31,0.386l-0.042,1.898c-0.004,0.155,0.126,0.302,0.346,0.392l2.685,1.097
		c0.555,0.227,0.419,0.722-0.229,0.838l-3.141,0.563c-0.257,0.047-0.459,0.163-0.539,0.312l-0.976,1.813
		c-0.202,0.375-1.06,0.453-1.451,0.133l-1.899-1.55c-0.155-0.127-0.409-0.202-0.679-0.2l-3.289,0.024
		c-0.679,0.005-1.073-0.441-0.667-0.756l1.967-1.521c0.161-0.125,0.206-0.287,0.119-0.435l-1.056-1.798
		C436.635,306.216,437.248,305.861,437.892,305.987z"/>
	<path fill="#EAE8ED" d="M451.245,298.278l3.114,0.609c0.255,0.05,0.537,0.024,0.753-0.068l2.636-1.136
		c0.544-0.234,1.317-0.007,1.309,0.385l-0.042,1.898c-0.003,0.156,0.126,0.303,0.347,0.393l2.685,1.096
		c0.555,0.227,0.419,0.722-0.229,0.839l-3.141,0.563c-0.258,0.046-0.459,0.162-0.539,0.311l-0.977,1.813
		c-0.201,0.374-1.059,0.453-1.451,0.133l-1.898-1.55c-0.155-0.128-0.41-0.202-0.68-0.2l-3.288,0.024
		c-0.679,0.005-1.073-0.442-0.667-0.756l1.967-1.521c0.161-0.125,0.206-0.288,0.119-0.436l-1.056-1.798
		C449.987,298.507,450.602,298.152,451.245,298.278z"/>
	<path fill="#EAE8ED" d="M464.598,290.568l3.114,0.61c0.256,0.05,0.537,0.023,0.754-0.069l2.635-1.136
		c0.545-0.234,1.318-0.007,1.31,0.386l-0.042,1.898c-0.004,0.155,0.126,0.302,0.347,0.393l2.685,1.096
		c0.555,0.227,0.419,0.722-0.23,0.838l-3.14,0.563c-0.258,0.046-0.459,0.163-0.539,0.312l-0.977,1.813
		c-0.201,0.375-1.06,0.453-1.451,0.133l-1.898-1.55c-0.156-0.127-0.41-0.202-0.68-0.2l-3.288,0.024
		c-0.68,0.005-1.073-0.441-0.667-0.756l1.967-1.521c0.161-0.125,0.205-0.287,0.119-0.435l-1.057-1.798
		C463.341,290.797,463.955,290.442,464.598,290.568z"/>
	<path fill="#EAE8ED" d="M477.951,282.859l3.114,0.609c0.255,0.05,0.537,0.024,0.753-0.068l2.636-1.136
		c0.544-0.234,1.318-0.007,1.31,0.385l-0.042,1.898c-0.004,0.156,0.126,0.303,0.346,0.393l2.685,1.097
		c0.555,0.226,0.419,0.721-0.229,0.838l-3.141,0.563c-0.257,0.046-0.459,0.162-0.539,0.311l-0.976,1.813
		c-0.202,0.374-1.06,0.453-1.451,0.133l-1.899-1.55c-0.155-0.128-0.409-0.202-0.679-0.2l-3.289,0.024
		c-0.679,0.005-1.073-0.442-0.667-0.756l1.967-1.522c0.161-0.124,0.206-0.287,0.119-0.435l-1.056-1.798
		C476.694,283.088,477.308,282.733,477.951,282.859z"/>
	<path fill="#EAE8ED" d="M491.305,275.149l3.114,0.61c0.255,0.05,0.537,0.023,0.753-0.069l2.636-1.136
		c0.544-0.234,1.317-0.007,1.309,0.386l-0.042,1.898c-0.003,0.155,0.126,0.302,0.347,0.392l2.685,1.097
		c0.555,0.227,0.419,0.722-0.229,0.838l-3.141,0.563c-0.258,0.047-0.459,0.163-0.539,0.312l-0.977,1.813
		c-0.201,0.375-1.059,0.453-1.451,0.133l-1.898-1.55c-0.155-0.127-0.41-0.202-0.68-0.2l-3.288,0.024
		c-0.679,0.005-1.073-0.441-0.667-0.756l1.967-1.521c0.161-0.125,0.206-0.287,0.119-0.435l-1.056-1.798
		C490.047,275.378,490.661,275.023,491.305,275.149z"/>
</g>
<g>
	<path fill="#EAE8ED" d="M320.198,319.337l3.114,0.609c0.255,0.051,0.537,0.024,0.753-0.068l2.635-1.136
		c0.544-0.234,1.318-0.007,1.31,0.386l-0.042,1.898c-0.003,0.155,0.126,0.302,0.346,0.392l2.685,1.097
		c0.555,0.227,0.419,0.722-0.23,0.838l-3.14,0.563c-0.257,0.046-0.459,0.162-0.539,0.312l-0.976,1.813
		c-0.202,0.375-1.06,0.453-1.451,0.133l-1.899-1.55c-0.156-0.127-0.41-0.202-0.679-0.2l-3.289,0.024
		c-0.679,0.005-1.073-0.441-0.667-0.756l1.967-1.521c0.161-0.125,0.206-0.287,0.119-0.435l-1.056-1.799
		C318.941,319.565,319.555,319.211,320.198,319.337z"/>
	<path fill="#EAE8ED" d="M333.552,311.628l3.114,0.609c0.255,0.05,0.537,0.024,0.753-0.069l2.635-1.135
		c0.544-0.234,1.318-0.007,1.31,0.385l-0.042,1.898c-0.003,0.155,0.126,0.303,0.346,0.393l2.685,1.096
		c0.554,0.227,0.418,0.722-0.23,0.838l-3.14,0.563c-0.258,0.047-0.459,0.163-0.54,0.312l-0.976,1.813
		c-0.202,0.374-1.059,0.452-1.451,0.133l-1.899-1.551c-0.156-0.127-0.41-0.201-0.679-0.199l-3.288,0.024
		c-0.679,0.005-1.074-0.442-0.667-0.757l1.967-1.521c0.161-0.124,0.206-0.287,0.119-0.435l-1.056-1.798
		C332.294,311.856,332.908,311.502,333.552,311.628z"/>
	<path fill="#EAE8ED" d="M346.905,303.918l3.114,0.609c0.255,0.051,0.537,0.024,0.753-0.068l2.635-1.136
		c0.545-0.234,1.318-0.007,1.31,0.386l-0.042,1.898c-0.003,0.155,0.126,0.302,0.347,0.392l2.685,1.097
		c0.555,0.227,0.419,0.722-0.229,0.838l-3.141,0.563c-0.258,0.046-0.459,0.163-0.539,0.312l-0.977,1.813
		c-0.201,0.375-1.059,0.453-1.451,0.133l-1.898-1.55c-0.156-0.127-0.41-0.202-0.68-0.2l-3.288,0.024
		c-0.679,0.005-1.073-0.441-0.667-0.756l1.967-1.521c0.161-0.125,0.206-0.287,0.119-0.435l-1.056-1.799
		C345.647,304.146,346.262,303.792,346.905,303.918z"/>
	<path fill="#EAE8ED" d="M360.258,296.209l3.114,0.609c0.256,0.05,0.537,0.024,0.753-0.069l2.636-1.135
		c0.544-0.235,1.318-0.007,1.31,0.385l-0.042,1.898c-0.004,0.155,0.126,0.303,0.346,0.393l2.686,1.096
		c0.554,0.227,0.418,0.722-0.23,0.838l-3.14,0.563c-0.258,0.047-0.46,0.163-0.539,0.312l-0.977,1.813
		c-0.201,0.374-1.06,0.452-1.451,0.133l-1.899-1.551c-0.155-0.127-0.409-0.201-0.679-0.199l-3.288,0.024
		c-0.68,0.005-1.073-0.442-0.668-0.757l1.967-1.521c0.162-0.125,0.206-0.287,0.12-0.435l-1.057-1.798
		C359.001,296.438,359.615,296.083,360.258,296.209z"/>
	<path fill="#EAE8ED" d="M373.611,288.499l3.114,0.609c0.255,0.051,0.537,0.024,0.753-0.068l2.636-1.136
		c0.544-0.234,1.317-0.007,1.309,0.386l-0.042,1.897c-0.003,0.156,0.127,0.303,0.347,0.393l2.685,1.097
		c0.555,0.227,0.419,0.722-0.229,0.838l-3.141,0.563c-0.257,0.046-0.459,0.162-0.539,0.312l-0.976,1.813
		c-0.202,0.375-1.06,0.453-1.451,0.133l-1.899-1.55c-0.155-0.127-0.409-0.202-0.68-0.2l-3.288,0.024
		c-0.679,0.005-1.073-0.441-0.667-0.756l1.967-1.521c0.161-0.125,0.206-0.287,0.119-0.436l-1.056-1.798
		C372.354,288.728,372.968,288.373,373.611,288.499z"/>
</g>
<g>
	<path fill="#EAE8ED" d="M451.786,382.815l3.114,0.609c0.255,0.05,0.537,0.024,0.753-0.068l2.636-1.136
		c0.544-0.234,1.317-0.007,1.309,0.385l-0.042,1.898c-0.003,0.156,0.126,0.303,0.347,0.393l2.685,1.096
		c0.555,0.227,0.419,0.722-0.229,0.838l-3.141,0.563c-0.257,0.047-0.459,0.163-0.539,0.312l-0.976,1.813
		c-0.202,0.374-1.06,0.453-1.451,0.133l-1.899-1.551c-0.155-0.127-0.41-0.201-0.68-0.199l-3.288,0.024
		c-0.679,0.005-1.073-0.442-0.667-0.757l1.967-1.521c0.161-0.124,0.206-0.287,0.119-0.435l-1.056-1.798
		C450.529,383.044,451.143,382.689,451.786,382.815z"/>
	<path fill="#EAE8ED" d="M465.14,375.105l3.114,0.609c0.255,0.051,0.536,0.024,0.753-0.068l2.635-1.136
		c0.545-0.234,1.318-0.007,1.31,0.386l-0.042,1.898c-0.003,0.155,0.126,0.302,0.347,0.392l2.685,1.097
		c0.555,0.227,0.419,0.722-0.229,0.838l-3.141,0.563c-0.258,0.046-0.459,0.163-0.539,0.312l-0.977,1.813
		c-0.201,0.375-1.059,0.453-1.451,0.133l-1.898-1.55c-0.156-0.127-0.41-0.202-0.68-0.2l-3.288,0.024
		c-0.679,0.005-1.073-0.441-0.667-0.756l1.967-1.521c0.161-0.125,0.206-0.287,0.119-0.435l-1.057-1.798
		C463.882,375.334,464.496,374.979,465.14,375.105z"/>
	<path fill="#EAE8ED" d="M478.492,367.396l3.114,0.609c0.256,0.05,0.537,0.024,0.753-0.069l2.636-1.135
		c0.544-0.234,1.318-0.007,1.31,0.385l-0.042,1.898c-0.004,0.155,0.126,0.303,0.346,0.393l2.686,1.096
		c0.554,0.227,0.418,0.722-0.23,0.839l-3.14,0.563c-0.258,0.047-0.46,0.163-0.539,0.312l-0.977,1.813
		c-0.201,0.374-1.06,0.453-1.451,0.133l-1.898-1.551c-0.156-0.127-0.41-0.201-0.68-0.199l-3.288,0.024
		c-0.68,0.005-1.073-0.442-0.668-0.756l1.967-1.522c0.162-0.124,0.206-0.287,0.12-0.435l-1.057-1.798
		C477.235,367.625,477.85,367.271,478.492,367.396z"/>
	<path fill="#EAE8ED" d="M491.846,359.687l3.114,0.61c0.255,0.05,0.537,0.023,0.753-0.069l2.636-1.136
		c0.544-0.234,1.317-0.007,1.31,0.386l-0.043,1.898c-0.003,0.155,0.127,0.302,0.347,0.392l2.685,1.097
		c0.555,0.227,0.419,0.722-0.229,0.838l-3.141,0.563c-0.257,0.046-0.459,0.163-0.539,0.312l-0.976,1.813
		c-0.202,0.375-1.06,0.453-1.451,0.133l-1.899-1.55c-0.155-0.127-0.409-0.202-0.68-0.2l-3.288,0.024
		c-0.679,0.005-1.073-0.441-0.667-0.756l1.967-1.521c0.161-0.125,0.206-0.287,0.119-0.435l-1.056-1.798
		C490.589,359.915,491.202,359.561,491.846,359.687z"/>
	<path fill="#EAE8ED" d="M505.199,351.978l3.114,0.609c0.255,0.05,0.536,0.024,0.753-0.068l2.635-1.136
		c0.545-0.234,1.318-0.007,1.31,0.385l-0.042,1.898c-0.003,0.156,0.126,0.303,0.347,0.393l2.685,1.096
		c0.555,0.227,0.419,0.722-0.229,0.838l-3.141,0.563c-0.258,0.047-0.459,0.163-0.539,0.312l-0.977,1.813
		c-0.201,0.374-1.059,0.452-1.451,0.133l-1.898-1.551c-0.156-0.127-0.41-0.201-0.68-0.199l-3.288,0.024
		c-0.679,0.005-1.073-0.442-0.667-0.757l1.967-1.521c0.161-0.124,0.206-0.287,0.119-0.435l-1.056-1.798
		C503.941,352.206,504.556,351.852,505.199,351.978z"/>
</g>
<path fill="#EAE8ED" d="M641.727,410.134c5.127,2.962,5.127,7.764,0,10.725c-5.127,2.962-13.438,2.962-18.565,0
	c-5.127-2.961-5.127-7.763,0-10.725S636.6,407.172,641.727,410.134z"/>
<g>
	<g>
		<g>
			<path fill="#EAE8ED" d="M315.808,311.239l-70.523,40.739c-2.291,1.323-6.004,1.323-8.295,0l0,0c-2.291-1.323-2.291-3.469,0-4.792
				l70.522-40.739c2.291-1.323,6.005-1.323,8.295,0l0,0C318.099,307.771,318.099,309.916,315.808,311.239z"/>
			<path fill="#EAE8ED" d="M370.288,279.768l-37.269,21.529c-2.291,1.323-6.004,1.323-8.295,0l0,0c-2.291-1.323-2.291-3.469,0-4.792
				l37.27-21.529c2.29-1.323,6.004-1.323,8.295,0l0,0C372.579,276.299,372.579,278.444,370.288,279.768z"/>
		</g>
		<path fill="#EAE8ED" d="M336.715,277.785l-70.523,40.739c-2.291,1.323-6.005,1.323-8.295,0l0,0c-2.291-1.323-2.291-3.469,0-4.792
			l70.522-40.739c2.291-1.323,6.005-1.323,8.295,0h0C339.006,274.316,339.006,276.462,336.715,277.785z"/>
		<path fill="#EAE8ED" d="M426.893,225.691l-70.522,40.739c-2.291,1.323-6.005,1.323-8.295,0l0,0c-2.291-1.323-2.291-3.469,0-4.792
			l70.523-40.739c2.291-1.323,6.005-1.323,8.295,0l0,0C429.184,222.223,429.184,224.368,426.893,225.691z"/>
		<path fill="#EAE8ED" d="M467.395,245.047l-70.522,40.74c-2.291,1.323-6.005,1.323-8.295,0l0,0c-2.291-1.323-2.291-3.469,0-4.792
			l70.522-40.74c2.29-1.323,6.005-1.323,8.295,0l0,0C469.686,241.579,469.686,243.724,467.395,245.047z"/>
		<path fill="#EAE8ED" d="M334.31,321.928l-20.642,11.925c-2.291,1.323-6.005,1.323-8.295,0l0,0c-2.291-1.323-2.291-3.469,0-4.792
			l20.642-11.925c2.291-1.323,6.005-1.323,8.295,0l0,0C336.601,318.459,336.601,320.604,334.31,321.928z"/>
		<path fill="#EAE8ED" d="M511.294,219.688l-20.643,11.925c-2.291,1.323-6.005,1.323-8.295,0l0,0c-2.291-1.323-2.291-3.469,0-4.792
			l20.642-11.924c2.291-1.323,6.005-1.323,8.296,0l0,0C513.584,216.219,513.584,218.365,511.294,219.688z"/>
		<path fill="#EAE8ED" d="M350.744,248.305l-70.522,40.739c-2.291,1.323-6.005,1.323-8.295,0l0,0c-2.291-1.323-2.291-3.469,0-4.792
			l70.522-40.739c2.291-1.323,6.005-1.323,8.295,0l0,0C353.034,244.836,353.034,246.981,350.744,248.305z"/>
		<path fill="#EAE8ED" d="M394.643,222.945L374,234.87c-2.29,1.323-6.004,1.323-8.295,0l0,0c-2.291-1.323-2.291-3.469,0-4.792
			l20.643-11.925c2.29-1.323,6.004-1.323,8.295,0l0,0C396.934,219.477,396.934,221.622,394.643,222.945z"/>
	</g>
	<g>
		<g>
			<path fill="#EAE8ED" d="M319.53,406.229l-70.522,40.739c-2.291,1.323-6.005,1.323-8.295,0l0,0c-2.291-1.323-2.291-3.469,0-4.792
				l70.523-40.739c2.291-1.323,6.004-1.323,8.295,0l0,0C321.821,402.76,321.821,404.905,319.53,406.229z"/>
			<path fill="#EAE8ED" d="M374.011,374.756l-37.269,21.53c-2.291,1.323-6.005,1.323-8.295,0l0,0c-2.291-1.323-2.291-3.469,0-4.792
				l37.269-21.53c2.291-1.323,6.005-1.323,8.296,0l0,0C376.302,371.287,376.302,373.433,374.011,374.756z"/>
		</g>
		<path fill="#EAE8ED" d="M340.438,372.774l-70.523,40.739c-2.291,1.323-6.004,1.323-8.295,0l0,0c-2.291-1.323-2.291-3.469,0-4.792
			l70.523-40.739c2.291-1.323,6.004-1.323,8.295,0l0,0C342.728,369.306,342.728,371.451,340.438,372.774z"/>
		<path fill="#EAE8ED" d="M430.615,320.681l-70.522,40.739c-2.291,1.323-6.005,1.323-8.296,0l0,0c-2.291-1.323-2.291-3.469,0-4.792
			l70.523-40.739c2.29-1.323,6.004-1.323,8.295,0l0,0C432.906,317.212,432.906,319.357,430.615,320.681z"/>
		<path fill="#EAE8ED" d="M471.117,340.036l-70.522,40.739c-2.291,1.323-6.005,1.323-8.296,0l0,0c-2.29-1.323-2.29-3.469,0-4.792
			l70.523-40.739c2.29-1.323,6.004-1.323,8.295,0l0,0C473.408,336.567,473.408,338.713,471.117,340.036z"/>
		<path fill="#EAE8ED" d="M338.033,416.916l-20.643,11.925c-2.291,1.323-6.004,1.323-8.295,0l0,0c-2.291-1.323-2.291-3.469,0-4.792
			l20.643-11.924c2.291-1.324,6.004-1.324,8.295,0l0,0C340.323,413.448,340.323,415.593,338.033,416.916z"/>
		<path fill="#EAE8ED" d="M515.016,314.677l-20.642,11.925c-2.291,1.323-6.005,1.323-8.296,0l0,0c-2.291-1.323-2.291-3.469,0-4.792
			l20.643-11.925c2.291-1.323,6.005-1.323,8.295,0l0,0C517.307,311.208,517.307,313.354,515.016,314.677z"/>
		<path fill="#EAE8ED" d="M354.466,343.294l-70.522,40.739c-2.291,1.323-6.005,1.323-8.295,0l0,0c-2.291-1.323-2.291-3.469,0-4.792
			l70.523-40.739c2.291-1.323,6.005-1.323,8.295,0l0,0C356.757,339.825,356.757,341.971,354.466,343.294z"/>
		<path fill="#EAE8ED" d="M398.365,317.935l-20.643,11.925c-2.291,1.323-6.005,1.323-8.295,0l0,0c-2.291-1.324-2.291-3.47,0-4.793
			l20.642-11.924c2.291-1.323,6.005-1.323,8.296,0l0,0C400.655,314.466,400.655,316.611,398.365,317.935z"/>
	</g>
	<g>
		<g>
			<path fill="#EAE8ED" d="M427.726,386.017l-70.522,40.739c-2.291,1.324-6.005,1.324-8.295,0l0,0c-2.291-1.322-2.291-3.469,0-4.792
				l70.523-40.739c2.291-1.323,6.005-1.323,8.295,0l0,0C430.017,382.548,430.017,384.693,427.726,386.017z"/>
			<path fill="#EAE8ED" d="M482.206,354.545l-37.27,21.529c-2.29,1.323-6.004,1.323-8.295,0l0,0c-2.291-1.323-2.291-3.469,0-4.792
				l37.269-21.529c2.291-1.323,6.005-1.323,8.296,0l0,0C484.497,351.076,484.497,353.222,482.206,354.545z"/>
		</g>
		<path fill="#EAE8ED" d="M448.633,352.563l-70.522,40.74c-2.291,1.323-6.005,1.323-8.296,0l0,0c-2.29-1.323-2.29-3.469,0-4.793
			l70.523-40.739c2.29-1.323,6.004-1.323,8.295,0l0,0C450.924,349.094,450.924,351.239,448.633,352.563z"/>
		<path fill="#EAE8ED" d="M538.811,300.469l-70.522,40.74c-2.291,1.323-6.005,1.323-8.296,0l0,0c-2.29-1.324-2.29-3.47,0-4.793
			l70.523-40.739c2.29-1.323,6.004-1.323,8.295,0l0,0C541.102,297,541.102,299.146,538.811,300.469z"/>
		<path fill="#EAE8ED" d="M579.313,319.825l-70.522,40.739c-2.291,1.323-6.005,1.323-8.296,0l0,0c-2.29-1.323-2.29-3.469,0-4.792
			l70.523-40.739c2.29-1.323,6.005-1.323,8.295,0l0,0C581.604,316.356,581.604,318.502,579.313,319.825z"/>
		<path fill="#EAE8ED" d="M446.228,396.705l-20.642,11.925c-2.291,1.323-6.005,1.323-8.296,0l0,0c-2.29-1.323-2.29-3.469,0-4.792
			l20.643-11.925c2.291-1.323,6.005-1.323,8.295,0l0,0C448.519,393.236,448.519,395.382,446.228,396.705z"/>
		<path fill="#EAE8ED" d="M623.212,294.466l-20.643,11.924c-2.291,1.323-6.005,1.323-8.296,0l0,0c-2.29-1.323-2.29-3.469,0-4.792
			l20.643-11.925c2.291-1.323,6.005-1.323,8.296,0l0,0C625.502,290.997,625.502,293.143,623.212,294.466z"/>
		<path fill="#EAE8ED" d="M462.662,323.082l-70.523,40.74c-2.291,1.323-6.005,1.323-8.295,0l0,0c-2.291-1.324-2.291-3.47,0-4.793
			l70.522-40.739c2.291-1.323,6.005-1.323,8.296,0l0,0C464.952,319.613,464.952,321.759,462.662,323.082z"/>
		<path fill="#EAE8ED" d="M506.561,297.723l-20.643,11.925c-2.291,1.323-6.005,1.323-8.295,0l0,0c-2.291-1.323-2.291-3.469,0-4.792
			l20.642-11.925c2.291-1.323,6.005-1.323,8.296,0l0,0C508.852,294.254,508.852,296.399,506.561,297.723z"/>
	</g>
	<g>
		<path fill="#EAE8ED" d="M575.769,230.631l-70.522,40.739c-2.291,1.323-6.005,1.323-8.295,0l0,0c-2.291-1.323-2.291-3.469,0-4.792
			l70.522-40.739c2.291-1.323,6.005-1.323,8.295,0l0,0C578.06,227.162,578.06,229.308,575.769,230.631z"/>
		<path fill="#EAE8ED" d="M616.271,249.986l-70.522,40.74c-2.291,1.322-6.005,1.322-8.295,0v-0.001
			c-2.291-1.323-2.291-3.469,0-4.792l70.522-40.739c2.291-1.323,6.005-1.323,8.295,0l0,0
			C618.562,246.518,618.562,248.663,616.271,249.986z"/>
		<path fill="#EAE8ED" d="M660.17,224.627l-20.643,11.925c-2.291,1.323-6.005,1.323-8.295,0l0,0c-2.291-1.323-2.291-3.469,0-4.792
			l20.642-11.925c2.291-1.323,6.005-1.323,8.296,0l0,0C662.46,221.158,662.46,223.304,660.17,224.627z"/>
		<path fill="#EAE8ED" d="M499.62,253.244l-70.523,40.739c-2.29,1.323-6.004,1.323-8.295,0l0,0c-2.291-1.323-2.291-3.469,0-4.792
			l70.522-40.74c2.291-1.323,6.005-1.323,8.296,0l0,0C501.91,249.775,501.91,251.921,499.62,253.244z"/>
		<path fill="#EAE8ED" d="M543.519,227.885l-20.643,11.924c-2.29,1.323-6.004,1.323-8.295,0l0,0c-2.291-1.323-2.291-3.469,0-4.792
			l20.643-11.925c2.29-1.323,6.004-1.323,8.295,0l0,0C545.81,224.416,545.81,226.562,543.519,227.885z"/>
	</g>
</g>
<path fill="#EAE8ED" d="M287.273,255.148c3.185,1.84,3.185,4.823,0,6.663s-8.349,1.84-11.534,0s-3.185-4.823,0-6.663
	S284.088,253.309,287.273,255.148z"/>
<g>
	<polygon fill="#7F542E" points="462.023,220.98 462.023,224.797 354.776,266.56 354.776,262.743 	"/>
	<path fill="#7F542E" d="M462.023,200.325v3.825c-14.424,5.603,29.764-11.587-71.375,27.796l20.341-11.748L462.023,200.325z"/>
	<polygon fill="#A26D42" points="462.023,200.325 410.989,220.198 455.326,194.596 	"/>
	<path fill="#6899F4" d="M369.848,243.951v-3.824l91.466-52.809v3.824C441.438,202.607,410.895,220.26,369.848,243.951z"/>
	<path fill="#A5B3BF" d="M456.997,220.916L356.56,260.024v-14.806l9.238-3.599v-0.008l4.05,2.339l20.801-12.006l66.349-25.835
		C456.997,209.539,456.997,217.468,456.997,220.916z"/>
	<path fill="#A5B3BF" d="M456.359,187.811l-85.664,49.46v-14.458l85.664-49.46C456.359,178.791,456.359,182.453,456.359,187.811z"/>
	<path fill="#6899F4" d="M369.848,223.304v-3.824l91.466-52.809v3.816C454.404,174.482,371.215,222.51,369.848,223.304z"/>
	<path fill="#7F542E" d="M365.798,241.612v0.008c-10.81,4.21-8.666,3.376-11.021,4.292v-3.825l7.076-2.751L365.798,241.612z"/>
	<polygon fill="#A26D42" points="361.853,239.336 354.776,242.087 330.239,221.085 	"/>
	<path fill="#A26D42" d="M356.56,260.024l100.438-39.108v-4.236l5.026,4.301l-107.247,41.763l-20.438-17.509
		c0.347-1.009,0.928-1.928,1.727-2.751L356.56,260.024z"/>
	<path fill="#DFE3E7" d="M356.56,245.218v14.806l-20.495-17.542c0.912-0.952,2.106-1.783,3.559-2.501c0-0.169,0-0.339,0-0.509
		c-3.236-2.767-6.471-5.543-9.707-8.311c-1.589,0.775-2.896,1.694-3.873,2.744c-0.206-0.206,0.133,0.113-18.315-15.677
		c-1.606-1.38-2.792-4.292-2.792-6.471v-5.285l11.603,6.697l38.237,32.742L356.56,245.218z"/>
	<path fill="#C48B5E" d="M354.776,262.743v3.816l-20.841-17.84c-0.121-1.274,0.016-2.428,0.403-3.485L354.776,262.743z"/>
	<path fill="#C48B5E" d="M354.776,242.087v3.825l-38.237-32.742l13.685,7.907C330.305,221.118,329.567,220.51,354.776,242.087z"/>
	<path fill="#D2898A" d="M339.624,239.473c-5.333,2.614-7.472,6.737-5.543,12.514l-9.707-8.31
		c-1.894-5.717,0.174-9.898,5.543-12.515C333.152,233.93,336.388,236.706,339.624,239.473z"/>
	<path fill="#C95B68" d="M334.08,251.987c-1.928-5.777,0.21-9.9,5.543-12.514c0,0.169,0,0.339,0,0.509
		c-5.199,2.57-6.823,6.494-5.027,11.723L334.08,251.987z"/>
	<path fill="#DFE3E7" d="M305.469,186.188c0.464,0.186-3.939-2.327,64.378,37.115l0.848-0.492v14.458l-61.749-35.647
		c-1.961-1.137-3.526-3.865-3.526-6.116C305.42,186.191,305.4,186.601,305.469,186.188z"/>
	<path fill="#9ED2E9" d="M305.469,186.188c-0.075,0.452-0.049,0.002-0.049,9.319c0,2.251,1.565,4.979,3.526,6.116l61.749,35.647
		l85.664-49.46v-3.349l4.954,2.856l-91.466,52.809l-63.798-36.833c-1.952-1.122-3.534-3.841-3.534-6.116v-8.673
		c0-0.702,0.193-1.574,0.702-2.049C303.693,186.019,304.503,185.817,305.469,186.188z"/>
	<path fill="#A26D42" d="M304.937,206.473v5.285c0,2.179,1.186,5.091,2.792,6.471c21.222,18.164,18.037,15.399,18.315,15.677
		c-0.799,0.823-1.388,1.727-1.775,2.711c-0.081,0,0.009,0.015-19.945-17.065c-1.573-1.348-2.792-4.236-2.792-6.471
		c0-9.625-0.031-8.643,0.072-8.746C302.349,205.062,302.806,205.243,304.937,206.473z"/>
	<path fill="#9ED2E9" d="M300.241,180.492c98.187-56.693,91.542-52.94,92.086-53.019c0.573-0.072,1.13,0.016,1.88,0.452
		l67.106,38.745l-91.466,52.809c-71.532-41.301-67.447-39.084-68.332-39.197C301.088,180.226,300.62,180.291,300.241,180.492z"/>
	<path fill="#76B2CC" d="M388.128,150.128l29.104,16.803c1.192,0.688,3.126,0.688,4.318,0l1.435-0.828
		c1.193-0.688,1.193-1.805,0-2.493l-29.104-16.804c-1.192-0.688-3.126-0.688-4.318,0l-1.435,0.829
		C386.936,148.324,386.936,149.44,388.128,150.128z"/>
	<path fill="#C48B5E" d="M299.208,199.09c0,1.799,0.992,3.897,2.396,5.245c-0.108,0.108-0.072-0.603-0.072,8.746
		c0,2.235,1.218,5.124,2.792,6.471c20.28,17.358,19.864,17.065,19.945,17.065c-0.411,1.017-0.613,2.122-0.589,3.316
		c-0.081,0,0.294,0.259-21.971-18.8c-1.573-1.347-2.792-4.236-2.792-6.471v-16.315c0-0.516,0.064-1.089,0.291-1.557V199.09z"/>
	<path fill="#B0A7C2" d="M379.111,263.853c-2.138,0.828-4.151,1.598-6.156,2.388c-1.907,0.751-3.656,0.739-5.133-0.924
		c-1.459-1.642-3.147-1.762-5.083-0.845c-1.439,0.682-2.938,1.264-4.459,1.735c-1.026,0.318-3.504,0.353-3.504,0.353v-3.816
		c0,0,4.328-1.682,5.821-2.673c-1.281-0.101-4.038-0.046-4.038-0.046v-8.037c0,0-0.582-2.244-1.469-2.995
		c-8.162-6.917-16.299-13.864-24.39-20.864c-1.157-1.001-2.458-1.268-3.839-1.508c-2.955-0.515-5.895-1.149-8.869-1.5
		c-2.381-0.281-3.427-1.688-3.942-3.765c-0.406-1.639-0.858-3.273-1.136-4.936c-0.421-2.521-2.172-6.163-4.415-7.889
		c6.39,3.107,13.994,8.082,20.683,11.946c-1.568,0-2.581,0-4.112,0c9.976,8.627,29.705,25.436,29.705,25.436l-0.001-3.817
		l7.077-2.759l1.297,0.813c0,0,4.195,2.393,6.529,3.716c0.113-1.446,0.199-2.541,0.287-3.668c1.249-0.825,2.804-1.663,4.391-2.711
		c-1.282-0.149-3.661-0.215-3.661-0.215s-0.052-4.571,0.085-6.602c0.119-1.774-0.637-2.408-2.072-3.233
		c-13.514-7.762-27.003-15.565-40.502-23.353c-5.204-3.002-10.405-6.01-15.627-8.981c-3.28-1.866-4.413-1.224-4.477,2.466
		c-0.018,1.013-0.002,2.027-0.002,3.257c-2.165,0.035-3.973-0.662-5.292-1.854c0,0-0.741-1.587-0.291-2.976
		c0,0-0.812-8.195-0.366-9.257c0.729-1.738,2.857-0.717,2.857-0.717c0.944,0.408,1.841,0.932,2.735,1.447
		c19.434,11.214,38.864,22.435,58.297,33.651c1.115,0.644,3.809,2.184,3.809,2.184v-3.824l91.466-52.809v3.816l-4.954,2.864v11.11
		l4.954,2.856v3.824l-3.767,2.202c12.676,7.571,25.649,14.522,38.397,22.148c-1.28,0.816-2.195,1.45-3.156,2.004
		c-26.513,15.286-53.03,30.564-79.546,45.846c-2.439,1.405-4.895,2.789-7.297,4.255c-1.889,1.152-3.735,1.021-5.604,0.058
		c-0.834-0.429-1.67-0.874-2.438-1.41c-1.423-0.993-2.813-0.841-4.225-0.035c-0.734,0.418-1.477,0.825-2.184,1.285
		c-2.04,1.324-4.071,1.166-6.1,0.001C383.285,266.283,381.185,265.056,379.111,263.853z"/>
	<path fill="#C5BED1" d="M337.125,251.624c-1.13,0-2.133,0.363-3.045,0.363c-1.928-6.075,0.448-10.21,5.543-12.514
		c1.124,1.884,0.374,4.599,1.083,6.869c-1.211,0.468-2.308,0.892-3.581,1.384C337.125,248.897,337.125,250.153,337.125,251.624z"/>
	<path fill="#C5BED1" d="M308.5,208.53c-2.952,1.949-1.89,5.054-1.428,9.02c-1.411-0.585-4.104-3.337-5.516-3.924
		c0-3.298,0.048-6.218,0.048-9.292C303.503,204.573,306.119,206.566,308.5,208.53z"/>
	<path fill="#82C2E8" d="M299.91,180.726c0.425-0.39,1.048-0.517,1.606-0.444c0.886,0.113-3.183-2.094,68.332,39.197v3.824
		c-68.136-39.337-64.18-37.172-65.024-37.292c-0.555-0.073-1.179,0.053-1.606,0.444c-0.508,0.476-0.702,1.347-0.702,2.049v8.673
		c0,2.275,1.582,4.995,3.534,6.116l63.798,36.833v3.824c-1.837-1.061-60.542-34.957-67.106-38.745
		c-1.92-1.097-3.534-3.811-3.534-6.116c0-4.173,0-12.128,0-16.315C299.208,182.074,299.401,181.202,299.91,180.726z"/>
</g>
<path fill="#EAE8ED" d="M627.619,343.446c3.186,1.84,3.186,4.823,0,6.663c-3.185,1.84-8.349,1.84-11.534,0
	c-3.185-1.84-3.185-4.823,0-6.663C619.271,341.606,624.435,341.606,627.619,343.446z"/>
<g>
	<g>
		<linearGradient id="SVGID_1_" gradientUnits="userSpaceOnUse" x1="448.4717" y1="192.6475" x2="554.1055" y2="192.6475">
			<stop  offset="0" style="stop-color:#C4B8E9"/>
			<stop  offset="0.4166" style="stop-color:#B2CFDE"/>
			<stop  offset="1" style="stop-color:#FFCADE"/>
		</linearGradient>
		<path fill="url(#SVGID_1_)" d="M448.491,263.809c0.322,3.328,0.967,5.823,2.493,8.874c1.234,2.469,3.442,5.56,5.533,7.378
			c2.343,2.044,5.185,3.44,7.927,4.936c4.138,2.243,7.976,4.636,11.965,7.029c1.02,0.605,66.601,38.482,67.698,38.934
			c5.427,2.286,9.473-0.998,9.473-7.179c0.429-180.922,0.195-146.953,0.349-157.731c0.05-7.877,0.249-15.803,0.149-23.68
			c-0.05-5.234-0.199-10.419-0.1-15.703c0.05-2.194,0.149-4.437-0.1-6.581c-0.933-6.53-4.74-12.405-8.874-15.653
			c-1.694-1.346-3.639-2.393-5.583-3.44c-3.091-1.745-6.082-3.539-9.073-5.284c-10.3-6.024-20.547-11.631-34.198-19.642
			c-24.923-14.83-23.128-12.825-29.612-17c-4.485-2.896-10.466-7.581-14.856-4.387c-3.117,2.226-2.84,6.924-2.741,10.369
			c0.164,5.012-0.259,3.979-0.05,22.333C448.931,95.919,448.36,261.112,448.491,263.809z M512.202,91.819c0,0.1,0,0.249-0.05,0.349
			c-0.05,0.149-0.05,0.25-0.149,0.299c-0.05,0.1-0.1,0.149-0.199,0.199c-0.659,0.33,0.483,0.776-19.691-10.868
			c-0.149-0.1-0.249-0.199-0.35-0.299c-0.243-0.163-0.522-0.521-0.598-0.748c-0.512-0.768-0.398-1.25-0.398-2.792
			c0-0.403,0.065-0.73,0.398-0.897c0.141-0.141,0.409-0.113,0.598-0.05c0.101,0,0.25,0.05,0.35,0.15
			c2.941,1.764,18.716,10.691,19.093,11.067c0.325,0.325,0.551,0.45,0.798,1.197C512.288,89.854,512.202,90.677,512.202,91.819z"/>
		<g>
			<g>
				<path opacity="0.69" fill="#FCFCFC" d="M476.32,106.603l-14.754-8.519c-1.808-1.044-3.274-3.356-3.274-5.165l0,0
					c0-1.808,1.467-2.428,3.274-1.384l14.754,8.519c1.809,1.044,3.275,3.356,3.275,5.165l0,0
					C479.596,107.027,478.129,107.646,476.32,106.603z"/>
				<path opacity="0.69" fill="#FCFCFC" d="M476.32,115.803l-14.754-8.518c-1.808-1.044-3.274-3.357-3.274-5.166l0,0
					c0-1.808,1.467-2.428,3.274-1.384l14.754,8.518c1.809,1.044,3.275,3.357,3.275,5.166l0,0
					C479.596,116.227,478.129,116.847,476.32,115.803z"/>
			</g>
			<path opacity="0.69" fill="#FCFCFC" d="M536.463,126.449l-71.614-41.346c-3.724-2.15-6.742-6.912-6.742-10.636l0,0
				c0-3.724,3.019-5,6.742-2.85l71.614,41.346c3.724,2.15,6.743,6.912,6.743,10.636l0,0
				C543.206,127.323,540.187,128.599,536.463,126.449z"/>
		</g>
		<path fill="#3F4F5D" d="M492.361,77.313c20.013,11.543,19.183,10.738,19.642,12.114c0.1,0.15,0.149,0.299,0.149,0.449
			c0.05,0.149,0.05,0.299,0.05,0.449v1.196c-20.396-11.797-18.548-10.671-18.993-11.117c-0.465-0.465-0.848-1.206-0.848-1.944
			V77.313z"/>
		<path fill="#5D6571" d="M491.763,77.013c0.101,0,0.25,0.05,0.35,0.149l0.249,0.15c0,1.393-0.021,1.363,0.1,1.844
			c0.266,0.796,0.785,1.388,1.296,1.695l18.445,10.668v0.299c0,0.1,0,0.249-0.05,0.349c-0.05,0.15-0.05,0.25-0.149,0.299
			c-0.05,0.1-0.1,0.149-0.199,0.199c-0.251,0.125-0.159,0.1-0.599,0.1c-0.1-0.05-0.249-0.1-0.349-0.15
			c-19.149-11.052-19.396-10.977-19.691-11.865c-0.525-0.789-0.399-1.385-0.399-2.792c0-0.246,0.017-0.43,0.15-0.698
			C491.188,76.991,491.385,76.887,491.763,77.013z"/>
		<path fill="#8140FF" d="M460.007,52.137c-3.771-2.21-7.143-2.253-9.571-0.997c14.749-8.316,14.465-8.64,16.451-8.874
			c2.942-0.336,4.842,0.445,7.278,1.745l82.954,47.908c6.942,3.895,13.609,14.371,13.609,23.63
			c-0.479,215.522-0.37,202.095-0.598,204.145c-0.356,2.35-1.769,5.098-3.839,6.281c-17.812,10.15-13.697,8.063-12.861,7.229
			c1.943-1.895,2.691-5.234,2.741-7.927l0.399-201.602c0-8.459-5.736-19.021-13.61-23.63L460.007,52.137z"/>
		<path fill="#A68EFE" d="M542.961,100.044l-82.954-47.908c-3.774-2.213-7.146-2.251-9.571-0.997c0,0.05-0.05,0.05-0.05,0.05
			c-2.879,1.28-4.038,5.53-4.038,8.824l-0.388,189.793l-0.011-0.006v11.815c0,8.383,5.538,18.816,13.56,23.63l83.004,47.908
			c7.027,4.119,13.488,1.341,13.659-7.877l0.399-201.602C556.571,115.258,550.875,104.677,542.961,100.044z M553.929,166.049
			c-0.146,10.247,0.078-22.372-0.349,157.732c0,6.169-4.037,9.467-9.473,7.179c-1.064-0.438-66.714-38.35-67.699-38.935
			c-3.987-2.394-7.826-4.786-11.964-7.029c-2.742-1.496-5.584-2.892-7.927-4.936c-2.087-1.814-4.297-4.904-5.533-7.378
			c-1.526-3.052-2.171-5.545-2.493-8.874c-0.122-2.505,0.025-1.431,0.048-10.304l0.002-0.002c0-117.623,0.39-157.547,0.35-166.121
			c-0.209-18.355,0.214-17.322,0.05-22.333c-0.08-2.799-0.285-5.846,1.047-8.375c0.94-1.672,2.221-2.549,3.489-2.842
			c3.933-1.311,9.595,2.996,13.062,5.234c3.639,2.343,7.577,4.337,11.416,6.431c9.106,4.92,15.347,9.135,36.392,21.038
			c22.26,12.689,19.535,11.329,25.076,14.457c3.877,2.087,6.435,3.566,9.272,7.179c1.872,2.457,2.973,4.54,3.889,6.83
			c1.664,4.576,1.503,6.954,1.396,11.665c-0.1,5.285,0.05,10.469,0.1,15.704C554.178,150.246,553.979,158.172,553.929,166.049z"/>
		<g>
			<path opacity="0.69" fill="#FCFCFC" d="M543.206,256.929c0,2.962-2.401,3.978-5.364,2.267l-74.051-42.753
				c-2.961-1.71-5.362-5.497-5.362-8.458v-41.397c0-2.962,2.401-3.977,5.362-2.267l74.052,42.754
				c2.962,1.71,5.363,5.497,5.363,8.458V256.929z"/>
			<path fill="#9D8CF9" d="M512.725,218.632c0,6.576-5.331,8.829-11.907,5.032c-6.576-3.796-11.907-12.206-11.907-18.781
				c0-6.576,5.331-8.83,11.907-5.033S512.725,212.056,512.725,218.632z"/>
			<path opacity="0.69" fill="#FCFCFC" d="M506.854,214.305c0.431,0.497,0.695,1.108,0.695,1.604c0,0.497-0.265,0.803-0.695,0.803
				H498.9c-0.431,0-0.96-0.306-1.391-0.803c-0.43-0.496-0.694-1.108-0.694-1.604v-9.185c0-0.497,0.265-0.802,0.694-0.802
				c0.431,0,0.96,0.306,1.391,0.802L506.854,214.305z"/>
		</g>
		<g>
			<path opacity="0.69" fill="#FCFCFC" d="M543.206,313.546c0,2.962-2.401,3.977-5.364,2.267l-74.051-42.754
				c-2.961-1.71-5.362-5.497-5.362-8.459v-41.397c0-2.962,2.401-3.977,5.362-2.267l74.052,42.754
				c2.962,1.71,5.363,5.496,5.363,8.458V313.546z"/>
			<path fill="#9D8CF9" d="M512.725,275.249c0,6.576-5.331,8.829-11.907,5.032S488.91,268.076,488.91,261.5
				s5.331-8.829,11.907-5.032C507.394,260.264,512.725,268.673,512.725,275.249z"/>
			<path opacity="0.69" fill="#FCFCFC" d="M506.854,270.922c0.431,0.496,0.695,1.107,0.695,1.604c0,0.496-0.265,0.802-0.695,0.802
				H498.9c-0.431,0-0.96-0.306-1.391-0.802c-0.43-0.497-0.694-1.108-0.694-1.604v-9.185c0-0.497,0.265-0.803,0.694-0.803
				c0.431,0,0.96,0.306,1.391,0.803L506.854,270.922z"/>
		</g>
		<g>
			<path opacity="0.69" fill="#FCFCFC" d="M543.206,200.464c0,2.962-2.401,3.977-5.364,2.267l-74.051-42.754
				c-2.961-1.71-5.362-5.497-5.362-8.458v-35.398c0-2.961,2.401-3.976,5.362-2.266l74.052,42.754
				c2.962,1.71,5.363,5.497,5.363,8.458V200.464z"/>
		</g>
		<path fill="#9D8CF9" d="M512.725,165.167c0,6.576-5.331,8.83-11.907,5.033s-11.907-12.206-11.907-18.782s5.331-8.829,11.907-5.032
			C507.394,150.182,512.725,158.591,512.725,165.167z"/>
		<path opacity="0.69" fill="#FCFCFC" d="M506.854,160.84c0.431,0.496,0.695,1.108,0.695,1.604s-0.265,0.803-0.695,0.803H498.9
			c-0.431,0-0.96-0.306-1.391-0.803c-0.43-0.497-0.694-1.108-0.694-1.604v-9.185c0-0.497,0.265-0.802,0.694-0.802
			c0.431,0,0.96,0.306,1.391,0.802L506.854,160.84z"/>
	</g>
	<path fill="#B0A7C2" d="M556.306,257.712l0.266-134.037c0,0,10.26,1.705,12.754-15.948c1.955,2.837,1.403,21.114,1.403,21.114
		l-0.306,129.42c0,0,18.662,0.386,28.478,0.222c8.918-0.149,16.921,2.133,24.498,6.545c0.102,0.059,31.411,17.86,58.319,33.662
		c3.56,2.09,7.749,3.569,10.162,8.086c-5.771,4.988-11.492,8.354-19.46,8.233c-24.121-0.363-48.253,0.047-72.375-0.256
		c-5.921-0.074-10.932,1.449-15.856,4.358c-9.095,5.372-18.327,10.512-27.403,15.914c-3.737,2.225-7.338,1.831-11.267-0.518
		c13.502,4.178,10.687-17.526,10.687-17.526L556.306,257.712z"/>
</g>
<g>
	<g>
		<path fill="#9F3759" d="M596.771,356.621v-11.242c0-1.564-1.091-3.442-2.433-4.219l63.064-36.408
			c1.348,0.776,2.433,2.66,2.433,4.214v11.247c0,0.856-0.337,1.364-0.714,1.575c-21.016,12.133-42.031,24.271-63.041,36.402
			C596.603,357.843,596.771,357.243,596.771,356.621z"/>
		<path fill="#BB426A" d="M657.403,304.752l-63.064,36.408l-5.224-3.021c-1.53-14.912-3.055-29.831-4.573-44.749l26.594-15.352
			L657.403,304.752z"/>
		<path fill="#BB426A" d="M595.807,358.316c-0.463,0.137-1.051-0.046-1.468-0.286l-3.391-1.964
			c-0.098-0.931-0.194-1.866-0.286-2.797c1.435,0.831,1.719,1.046,2.238,1.124c0.444,0.061,0.851-0.103,0.914-0.165
			c0.395-0.23,0.568-0.661,0.639-1.113c0.059-0.305,0.04,0.175,0.04-6.423c0-1.553-1.079-3.438-2.432-4.22l-2.661-1.535
			c-0.097-0.931-0.193-1.861-0.285-2.798l5.224,3.021c1.342,0.776,2.433,2.654,2.433,4.219v11.242c0,0.622-0.169,1.222-0.69,1.569
			C596.068,358.203,595.934,358.276,595.807,358.316z"/>
		<path fill="#C8D1DD" d="M594.453,353.115c-0.251-0.095-0.123-0.038-4.042-2.301c-0.343-3.289-0.679-6.583-1.011-9.877l2.661,1.535
			c1.353,0.782,2.432,2.667,2.432,4.22C594.493,353.164,594.511,352.818,594.453,353.115z"/>
		<path fill="#CD7E8E" d="M593.779,354.251c-0.563,0.295-1.165,0.148-1.718-0.171l-1.399-0.811h-0.005
			c-0.08-0.816-0.166-1.633-0.246-2.455c3.891,2.246,3.8,2.21,4.042,2.301c-0.07,0.452-0.244,0.883-0.639,1.113
			C593.803,354.24,593.791,354.245,593.779,354.251z"/>
		<path fill="#DA926E" d="M590.948,356.066c0.125,1.257,0.257,2.513,0.382,3.769c0.052,0.525-0.205,1.199-0.993,1.759l-9.677,6.834
			c-1.37,0.965-3.54,1.062-4.858,0.302l-6.349-62.156c0-1.667,0-3.34,0-5.007c0.028-0.457-0.294-0.866-0.651-1.153l0.018-0.022
			c1.318,0.765,3.488,0.662,4.858-0.303l9.677-6.834c0.748-0.531,1.057-1.165,0.988-1.753
			C584.4,291.501,587.021,318.412,590.948,356.066z"/>
		<path fill="#E2AE4A" d="M579.455,292.917c-0.131-0.126-0.285-0.234-0.439-0.325h-0.006l-0.217-2.164
			C579.789,290.997,580.131,292.021,579.455,292.917z"/>
		<path fill="#C8D1DD" d="M579.455,292.917c-0.335,0.472-0.369,0.427-5.795,4.259c-1.353,0.953-3.522,1.067-4.853,0.303
			l-40.759-23.533c8.299-5.861,6.754-4.771,8.393-5.927C582.254,294.464,579.235,292.706,579.455,292.917z"/>
		<polygon fill="#E2AE4A" points="579.01,292.592 536.441,268.019 535.203,268.893 534.809,265.033 578.793,290.428 		"/>
		<path fill="#DA926E" d="M569.453,306.573l6.349,62.156l-6.349-3.665C569.453,345.567,569.453,326.076,569.453,306.573z"/>
		<path fill="#648F66" d="M569.453,374.382c0,0.435-0.263,0.977-1.011,1.41l-9.734,5.624c-0.959,0.548-2.478,0.765-3.865,0.399
			c0-23.928,0-47.849,0-71.771c0-0.315-0.128-0.63-0.314-0.88c-0.188-0.239-0.434-0.416-0.69-0.57c1.342,0.782,3.517,0.782,4.87,0
			c10.568-6.106,10.084-5.754,10.431-6.194c0.183-0.24,0.303-0.537,0.314-0.834C569.453,322.95,569.453,336.845,569.453,374.382z"/>
		<path fill="#72A368" d="M564.868,301.292c0.099,0.393-0.06,0.982-0.616,1.434c-0.22-0.187,2.717,1.528-42.939-24.83l-1.41,0.816
			v-3.944l43.984,25.395C564.303,300.401,564.754,300.818,564.868,301.292z"/>
		<path fill="#C8D1DD" d="M558.708,305.963c-1.354,0.781-3.528,0.776-4.87,0l-40.564-23.42c7.551-4.363,6.179-3.57,8.039-4.647
			c45.64,26.349,42.718,24.642,42.939,24.83C564.011,302.918,564.137,302.826,558.708,305.963z"/>
		<path fill="#5A84D9" d="M554.843,310.045c0,21.248,0,46.426,0,72.775c0,0.428-0.263,0.977-1.005,1.404l-9.74,5.624
			c-1.342,0.771-3.511,0.787-4.87,0v-72.815c1.359,0.787,3.528,0.771,4.87,0l9.74-5.624
			C554.333,311.117,554.843,310.624,554.843,310.045z"/>
		<path fill="#6899F4" d="M550.258,309.725c0.102,0.404-0.085,1.029-0.616,1.434c-0.22-0.187,2.717,1.528-42.939-24.83l-1.41,0.816
			v-3.945l43.984,25.396C549.693,308.84,550.144,309.257,550.258,309.725z"/>
		<path fill="#C8D1DD" d="M549.642,311.158c-0.229,0.194-0.053,0.07-5.544,3.242c-1.342,0.771-3.517,0.782-4.87,0l-40.569-23.425
			c7.556-4.363,6.184-3.57,8.044-4.647C552.343,312.677,549.42,310.97,549.642,311.158z"/>
		<polygon fill="#6899F4" points="539.228,317.033 539.228,389.849 492.96,363.141 492.96,290.319 		"/>
		<path fill="#B0A7C2" d="M541.124,390.585c0-24.428,0-48.604,0-72.908c3.013-0.309,5.292-2.247,7.821-3.643
			c2.11-1.165,2.793-4.254,4.893-5.439c0.645-0.364,1.905,0.236,3.064,0.381c0.671,0.084,1.445-0.423,2.13-0.755
			c0.75-0.363,1.446-0.837,2.171-1.254c0.664-0.383,1.345-0.737,2-1.135c1.962-1.188,3.907-2.405,5.88-3.576
			c0.306-0.181-0.66-1.76-0.281-1.843c0.042-0.336,1.466,0.908,1.508,0.572c0.127-0.074,0.244-0.2,0.361-0.2
			c1.783-0.006,3.158-0.944,4.527-1.928c2.938-2.107,5.919-4.765,9.14-7.055c0.225,1.95,0.415,4.264,0.598,6.01
			c0.833,7.951,1.66,15.902,2.476,23.855c0.106,1.039,0.225,2.378,0.296,3.421c0.092,1.329,0.535,1.96,1.807,2.651
			c3.979,2.162,7.896,4.438,11.793,6.746c1.785,1.058,3.464,2.294,5.46,3.628c17.472-9.989,34.764-20.083,52.905-30.446
			c0,2.426,0.349,4.405,0.207,6.326c-0.123,1.669,0.521,2.403,2.041,3.182c2.54,1.299,4.969,2.817,7.434,4.261
			c0.459,0.27,0.871,0.617,1.602,1.141c-17.946,10.367-35.648,20.594-53.566,30.945c0.531,0.42,0.854,0.744,1.234,0.966
			c5.424,3.149,10.857,6.279,16.28,9.43c0.817,0.475,1.956,0.792,1.87,1.997c-0.074,1.038-1.085,1.364-1.881,1.783
			c-2.837,1.492-5.723,2.897-8.501,4.49c-1.713,0.982-3.439,1.471-5.433,1.098c-0.12,0.697-0.06,1.433-0.38,1.915
			c-0.361,0.544-1.033,0.915-1.626,1.266c-2.34,1.383-4.712,2.709-7.05,4.093c-1.641,0.972-3.278,1.895-5.536,1.397
			c0.08,1.586-0.844,2.293-1.981,2.927c-2.86,1.595-5.683,3.258-8.496,4.934c-1.204,0.718-2.496,0.774-3.833,0.773
			c-16.186-0.009-32.371-0.006-48.557-0.006C542.753,390.585,542.005,390.585,541.124,390.585z"/>
		<path fill="#EBD863" d="M578.793,290.428l-43.984-25.395l2.267-1.604l46.263,26.714c1.246,0.712,1.447,2.096,0.017,3.111
			l-9.677,6.834c-1.37,0.965-3.54,1.067-4.858,0.303l-0.018,0.022c-0.248-0.211,2.981,1.679-46.233-26.742l2.255-1.587
			c4.681,2.701-2.022-1.17,43.984,25.395c1.33,0.765,3.5,0.65,4.853-0.303l5.15-3.637
			C580.219,292.541,580.059,291.15,578.793,290.428z"/>
		<path fill="#82C2E8" d="M550.281,310.005c0.036-0.583-0.503-1.114-1.005-1.41l-43.984-25.396l2.278-1.313
			c49.435,28.536,46.592,26.813,46.958,27.278c0.651,0.875,0.228,1.703-0.69,2.244l-9.74,5.624c-1.342,0.771-3.511,0.787-4.87,0
			l-46.268-26.714l2.284-1.313c4.069,2.348-4.804-2.775,43.983,25.395c1.354,0.782,3.528,0.771,4.87,0
			c5.465-3.157,5.502-3.109,5.869-3.563C550.144,310.599,550.27,310.302,550.281,310.005z"/>
		<path fill="#84BF80" d="M568.802,300.413c0.356,0.287,0.68,0.696,0.651,1.153c-0.024,0.638-0.457,1.092-1.011,1.404l-9.734,5.624
			c-1.354,0.782-3.528,0.782-4.87,0l-46.268-26.708l2.283-1.319c28.201,16.317,43.892,25.342,43.984,25.396
			c1.342,0.776,3.517,0.781,4.87,0c5.115-2.956,5.3-3.043,5.544-3.237c0.371-0.301,0.621-0.697,0.639-1.159
			c0.037-0.581-0.505-1.117-1.004-1.404l-43.984-25.395l2.278-1.319C522.237,273.481,568.521,300.175,568.802,300.413z"/>
	</g>
	<path fill="#9F3759" d="M604.199,292.925l29.104,16.803c1.192,0.688,3.126,0.688,4.318,0l1.435-0.828
		c1.192-0.688,1.192-1.805,0-2.493l-29.104-16.803c-1.192-0.688-3.126-0.688-4.318,0l-1.435,0.828
		C603.007,291.12,603.007,292.236,604.199,292.925z"/>
	<path fill="#4B7CD6" d="M530.635,328.436l-29.104-16.803c-1.192-0.688-2.159-0.28-2.159,0.912v1.436
		c0,1.192,0.967,2.717,2.159,3.405l29.104,16.804c1.192,0.688,2.159,0.279,2.159-0.913v-1.435
		C532.794,330.649,531.827,329.125,530.635,328.436z"/>
	<path fill="#4B7CD6" d="M530.635,338.607l-29.104-16.804c-1.192-0.688-2.159-0.28-2.159,0.913v1.435
		c0,1.192,0.967,2.717,2.159,3.405l29.104,16.804c1.192,0.688,2.159,0.279,2.159-0.913v-1.435
		C532.794,340.82,531.827,339.296,530.635,338.607z"/>
</g>
<g>
	<g>
		<path fill="#785CAD" d="M435.456,135.277v6.591c-32.065,18.514-19.626,11.332-56.698,32.735v-6.593L435.456,135.277z"/>
		<path fill="#BFB5F4" d="M435.456,135.277l-56.698,32.733l-27.087-15.637c0.416-0.624,1.058-1.335,1.701-1.699
			c0.063-0.021,24.466-14.125,24.494-14.145c0.396-0.22,0.793-0.692,0.959-1.274c0.291-1.057-0.24-2.177-1.261-2.608
			c-0.722-0.305-1.529-0.16-1.97,0.134c-26.001,15.008-24.31,14.092-24.41,14.092c-1.376,0.816-2.484,1.987-3.315,3.306
			c-0.1-0.1,1.928,1.112-25.81-14.901l56.698-32.735L435.456,135.277z"/>
		<path fill="#8140FF" d="M409.201,176.225c0.057,1.649-0.304,3.312-0.95,4.743c-0.002,0.008-0.006,0.014-0.01,0.02
			c-0.668,1.569-2.069,3.571-4.21,5.41c-12.002,10.464-39.324,10.385-51.095-0.488c0.026-0.471-0.037-0.646-0.037-0.746
			c-0.687-4.46-1.397-8.407-1.397-8.609c-0.105-0.628-0.424-1.214-0.947-1.636c0-5.532,0-11.066,0-16.598l28.203,16.283
			l30.451-17.581c0,6.517,0,13.035,0,19.553C409.209,176.459,409.207,176.341,409.201,176.225z"/>
		<path fill="#A68EFE" d="M378.758,168.01v6.593l-28.203-16.283c0-2.897-0.052-3.039,0.146-3.813
			c0.196-0.767,0.54-1.488,0.971-2.134L378.758,168.01z"/>
		<path fill="#48413C" d="M346.17,175.418c0-32.78,0,12.433,0-19.86c-0.034-3.036,1.977-6.886,5.014-8.686
			c0.101,0-1.462,0.842,24.41-14.092c-0.161,0.107,0.433-0.343,1.212-0.303c2.094,0.091,2.868,2.798,1.164,3.984
			c-0.561,0.396-24.467,14.047-25.087,14.552c-1.365,1.115-2.329,3.115-2.329,4.538c0,7.109,0,12.276,0,19.891
			c0,0.375-0.289,0.692-0.642,0.894C348.595,177.101,346.17,176.621,346.17,175.418z"/>
		<path fill="#D2448D" d="M346.17,175.458c0.017,0.412,0.318,0.706,0.683,0.901c1.504,0.811,3.701,0.12,3.701-0.913
			c0-0.126,0-0.402,0-0.528c0.275,0.221,0.498,0.491,0.655,0.786c0.176,0.326,0.294,0.753,0.294,0.87
			c0.331,1.712-3.451,2.692-5.499,1.376c-0.696-0.456-0.864-1.026-0.783-1.374c0-0.202,0.213-1.06,0.949-1.656
			C346.17,175.152,346.17,174.975,346.17,175.458z"/>
		<path fill="#A68EFE" d="M346.17,155.789l-24.11-13.92v-6.591c27.666,15.972,25.709,14.8,25.81,14.901
			c-0.368,0.568-0.744,1.292-1.03,2.028C346.3,153.61,346.17,154.661,346.17,155.789z"/>
		<path fill="#AA226D" d="M345.478,177.477c1.371,1.774,6,1.234,6.04-0.722c0.005-0.164-0.254-1.705,1.368,8.329
			c0.006,0.026,0.01,0.053,0.014,0.079v0.002c0.405,2.16-1.531,4.367-4.971,4.136c-2.901-0.194-4.437-2.078-4.103-4.136
			c0-0.105,1.379-8.487,1.396-8.589C345.171,176.794,345.227,177.143,345.478,177.477z"/>
	</g>
	<path fill="#B0A7C2" d="M378.758,174.603c0,0,6.566,19.713,16.341,16.727l6.784,0.623l3.007-0.697l9.678-6.834
		c1.491-1.115,1.188-2.388-0.018-3.111l-4.068-2.386c-0.828-0.485-1.317-1.391-1.272-2.349l0,0v-19.553L378.758,174.603z"/>
</g>
<g>
	<path fill="#E6A57A" d="M496.769,235.171c0,0.028,0,0.053,0,0.077c0,2.106-3.646,2.452-3.646,4.109
		c0,0.952,2.319,2.783,2.319,4.754c0,4.475-5.012,5.42-9.48,5.42c-0.735,0-1.454-0.021-2.142-0.042h-0.003
		c-0.234-1.911-0.963-3.976-2.292-5.211c3.68-1.946,5.577-9.208,14.667-9.208C496.405,235.07,496.601,235.098,496.769,235.171z"/>
	<path fill="#F6BA28" d="M413.921,239.737c1.402-1.105,3.049-1.96,4.852-2.567c0.144,1.053,0.433,2.047,0.848,2.829
		c0.98,0.272,1.992,0.391,3.011,0.391c2.588,0,5.238-0.757,7.642-1.632c0.171-0.684,0.3-1.378,0.391-2.079
		c3.155,0.941,5.609,2.25,7.437,3.503c2.99,2.049,6.542,3.175,10.166,3.146c9.305-0.074,19.447,3.715,25.865,2.085
		c2.013-0.513,3.914-1.399,5.888-2.044c0.568,0.192,1.071,0.506,1.507,0.911c1.329,1.235,2.058,3.3,2.292,5.211
		c0.052,0.391,0.08,0.774,0.087,1.144c-12.346,7.76-25.699,5.21-36.83,8.625c-2.623,0.804-4.252,3.428-3.886,6.147
		c1.701,12.608,5.305,27.005,0.886,31.254c-0.013,0.013-0.027,0.022-0.041,0.033c-3.917,3.094-9.502,4.896-17.405,4.896
		c-7.363,0-12.414-5.482-14.563-12.344v-0.003c-0.22-0.705-0.412-1.424-0.568-2.152c0.509-1.946,1.252-5.532,1.649-9.456
		c0.167-1.653,0.272-3.369,0.272-5.044c0-10.659-2.738-18.979-2.738-24.723c0-1.96,0.255-3.949,1.012-5.557
		C412.19,241.248,412.909,240.352,413.921,239.737z"/>
	<path fill="#A68EFE" d="M450.819,367.337c2.75,0,5.12,2.21,5.12,4.858c0,5.883-13.435,12.49-19.088,12.49
		c-4.008,0-4.862-3.497-4.862-7.509c0-1.177,0.085-2.357,0.151-3.537c-0.151-2.964,2.372-3.363,2.482-4.019
		c0.815,0.539-0.458,2.763,0.427,2.763c2.734,0,4.692-2.287,6.475-4.745c1.226,1.586,1.439,3.081,1.317,4.989
		C445.102,370.12,448.431,367.337,450.819,367.337z"/>
	<path fill="#D2448D" d="M416.879,353.932c-0.327,1.325-0.625,2.525-0.883,3.568c-0.232,0.938-0.713,1.792-1.395,2.477
		c-0.604,0.608-1.275,1.297-1.41,1.297c-2.338,0-4.359,2.312-4.356-5.626h-0.003c0.613-4.297,1.671-62.76,3.233-66.401
		c2.148,6.861,7.199,12.344,14.563,12.344c7.903,0,13.488-1.803,17.405-4.896l0.003,0.003c0.499,2.958,0.677,5.892,0.677,8.828
		c0,0.168-2.372,53.816-2.916,63.335c-0.502,2.063-1.529,3.427-4.398,4.424c-1.343,0.467-2.174,0.342-2.782,0.024
		c-0.891-0.464-1.539-1.383-1.497-2.386c0.409-9.691-3.719-51.37-7.765-58.354C422.666,321.177,419.704,342.494,416.879,353.932z"/>
	<path fill="#8140FF" d="M430.792,235.311c-0.027,0.457-0.069,0.914-0.129,1.367c-0.091,0.701-0.22,1.396-0.391,2.079
		c-2.403,0.875-5.054,1.632-7.642,1.632c-1.019,0-2.03-0.119-3.011-0.391c-0.415-0.781-0.704-1.775-0.848-2.829
		c-0.066-0.481-0.098-0.974-0.098-1.465c0-1.803,0.45-3.572,1.447-4.573c0.29,0.61,0.652,1.137,1.082,1.598v0.003
		c1.876,2.02,4.921,2.658,7.799,2.658c0.102,0,0.199,0,0.3-0.003C429.809,235.381,430.308,235.356,430.792,235.311z"/>
	<path fill="#E6A57A" d="M429.635,233.692c-0.137,0.562-0.244,1.127-0.332,1.695c-0.101,0.003-0.198,0.003-0.3,0.003
		c-2.878,0-5.923-0.638-7.799-2.658v-0.003c0.027-0.83,0.045-1.66,0.052-2.498c1.267,0.321,2.539,0.171,3.875,0.604
		c0.869,0.708,1.979,1.214,3.14,1.461C428.73,232.758,429.185,233.229,429.635,233.692z"/>
	<path fill="#A68EFE" d="M416.267,356.406c0.189-0.763,0.395-1.591,0.612-2.475c1.782-1.343,3.857-2.306,5.839-2.306
		c2.428,0,4.461,1.374,4.461,3.983c0,8.618-13.255,15.313-17.024,15.313c-0.032,0-0.066,0-0.099,0
		c-1.541-0.363-2.73-1.563-2.73-3.433c0-3.966,0.788-6.756,1.507-11.842h0.003C409.339,360.967,415.838,358.137,416.267,356.406z"/>
	<path fill="#F2A305" d="M413.419,272.591c0,1.675-0.105,3.391-0.272,5.044h-0.004c-3.575-5.295-5.846-13.136-5.846-20.527
		c0-5.64,1.322-11.015,4.396-14.796c-0.757,1.608-1.012,3.596-1.012,5.557C410.681,253.612,413.419,261.932,413.419,272.591z"/>
	<path fill="#E06C00" d="M440.225,206.071c0.565,1.852,0.403,3.699-1.809,4.375c-0.01,0.003-0.017,0.005-0.023,0.007
		c-0.046,0.014-0.093,0.028-0.138,0.038c-2.204,0.604-2.673,3.233-4.073,3.661c-7.115,2.173,3.233,15.083-6.237,17.975
		c-0.497,0.152-1.017,0.252-1.539,0.299c-1.183,0.103-2.392-0.057-3.429-0.481c-1.404-0.023-2.578,0.492-3.883,0.555
		c-0.51,0.024-1.037-0.019-1.611-0.19c-4.594-1.38-7.459-5.089-8.824-9.559c-1.516-4.964-1.611-11.7,1.587-17.159
		c1.3-2.228,3.146-4.243,5.667-5.841c1.5-0.951,3.241-1.756,5.246-2.369C428.728,195.071,438.039,198.916,440.225,206.071z"/>
	<path fill="#E6A57A" d="M438.255,210.491c0.236,0.581,0.445,1.17,0.629,1.771c1.768,5.788,1.787,19.239-4.754,21.237
		c-1.599,0.488-3.582,0.416-6.019-0.266c0.002,0.043,0.004,0.086,0.006,0.129c-0.565-0.313-1.137-0.63-1.712-0.936
		c0.522-0.046,1.042-0.147,1.539-0.299c9.471-2.893-0.878-15.802,6.237-17.975C435.582,213.725,436.051,211.095,438.255,210.491z"/>
</g>
<g>
	<path fill="#C5BED1" d="M615.861,301.616c5.008,2.891,5.008,7.578,0,10.47c-5.008,2.891-13.126,2.891-18.133,0
		c-5.008-2.892-5.008-7.579,0-10.47C602.735,298.726,610.854,298.726,615.861,301.616z"/>
	<g>
		<g>
			<path d="M618.059,190.29c-0.002,0-0.005,0-0.007-0.002c-0.199-0.113-0.413-0.231-0.636-0.351
				c-0.007-0.004-0.01-0.012-0.006-0.019c0.004-0.006,0.012-0.009,0.019-0.005l0,0c0.086,0.052,0.157,0.075,0.637,0.352l0,0
				c0.006,0.003,0.009,0.012,0.005,0.019C618.067,190.287,618.063,190.29,618.059,190.29z"/>
		</g>
		<path fill="#B19069" d="M597.786,248.932c-1.11-0.889-1.976-2.108-1.976-3.535c0-1.609,0-3.219,0-4.828
			c0,0.837,0.301,1.634,0.819,2.348c2.897,3.98,11.849,4.934,17.058,1.928c1.625-0.938,3.061-2.405,3.066-4.275h0.001
			c0,1.609,0,3.219,0,4.828c0.003,1.866-1.459,3.347-3.067,4.275C609.04,252.354,601.48,251.894,597.786,248.932z"/>
		<path fill="#C0AD88" d="M596.8,241.874l0.003-0.001c0.211,0.49,0.521,0.931,0.881,1.317c3.104,3.333,10.938,4.012,15.594,1.324
			c1.048-0.604,2.052-1.464,2.552-2.564c0.058-0.124,0.313-0.787,0.896-1.825l0.001,0.001c0.257,2.039-1.256,3.69-3.039,4.719
			c-5.206,3.004-14.16,2.052-17.058-1.928c-0.633-0.872-0.951-1.876-0.768-2.952l0.001-0.001
			C596.226,240.597,596.541,241.231,596.8,241.874z"/>
		<path fill="#C0AD88" d="M612.398,258.79c-4.54,3.297-12.117,2.74-14.287,0.031c-0.887-1.106-0.664-2.316,0.378-3.269
			c2.599,2.384,9.656,2.656,13.909-0.433c0.894-0.649,1.67-1.473,2.122-2.43C615.618,255.024,614.485,257.274,612.398,258.79z"/>
		<path fill="#C0AD88" d="M598.048,261.749c0.143-0.237,0.34-0.49,0.386-0.536c2.589,2.463,9.731,2.695,13.965-0.378
			c0.897-0.651,1.671-1.477,2.121-2.432c1.104,2.343-0.051,4.599-2.121,6.101c-2.851,2.069-7.264,2.732-10.665,1.954
			c-1.793-0.41-4.064-1.485-4.169-3.235c-0.001-0.001,0-0.001,0-0.001C597.533,262.714,597.702,262.211,598.048,261.749z"/>
		<g>
			<path d="M614.627,264.768c-0.002,0-0.004-0.001-0.006-0.002c-0.007-0.003-0.01-0.012-0.006-0.018l0,0
				c0.231-0.46,0.314-0.914,0.314-1.42c0-0.007,0.007-0.013,0.014-0.013c0-0.001,0-0.001,0-0.001c0.008,0,0.014,0.006,0.014,0.014
				c0.016,0.507-0.104,0.997-0.317,1.432l0,0l0,0C614.637,264.765,614.633,264.768,614.627,264.768z"/>
		</g>
		<g>
			<path d="M614.944,263.419c-0.002,0-0.005-0.001-0.007-0.002c-0.003-0.002-0.005-0.003-0.006-0.013h-0.001
				c0-0.061-0.001-0.099-0.005-0.15c0-0.008,0.006-0.015,0.013-0.015c0.017,0,0.012,0.013,0.015,0.013
				c0.005,0.067,0.005,0.091,0.005,0.152h-0.001c-0.002,0.01-0.004,0.012-0.006,0.013S614.946,263.419,614.944,263.419z"/>
		</g>
		<path fill="#B19069" d="M597.561,259.432L597.561,259.432c-0.001-0.68-0.001-1.362-0.001-2.042c0,3.546,9.257,5.454,14.839,1.4
			c1.493-1.085,2.485-2.534,2.545-4.112c0,0.631,0,1.261,0,1.891h-0.001c0.003,1.752-1.12,3.232-2.544,4.267
			c-4.253,3.088-11.386,2.832-13.965,0.378C597.926,260.729,597.56,260.127,597.561,259.432z"/>
		<path fill="#B19069" d="M597.56,253.718c0-0.681,0-1.362,0-2.044c0.002,0.804,0.504,1.596,1.443,2.239
			c3.015,2.06,9.493,1.997,13.396-0.837c1.432-1.04,2.544-2.515,2.544-4.264h0.001c0,0.681,0,1.362,0,2.043
			c0,1.757-1.121,3.231-2.545,4.265c-4.226,3.068-11.288,2.837-13.909,0.433C597.957,255.066,597.56,254.436,597.56,253.718z"/>
		<path fill="#C0AD88" d="M612.398,253.076c-3.902,2.834-10.381,2.896-13.396,0.837c-1.641-1.122-1.979-2.734-0.514-4.074
			c2.068,1.886,6.134,2.132,9.084,1.558c2.553-0.182,5.435-0.961,7.362-2.596l0.007,0.009
			C614.942,250.574,613.815,252.047,612.398,253.076z"/>
		<g>
			<path d="M614.424,265.132c-0.002,0-0.005-0.001-0.007-0.003c-0.007-0.003-0.009-0.012-0.005-0.019l0,0
				c0.038-0.062,0.088-0.144,0.134-0.229l0.001-0.001c0.004-0.007,0.012-0.009,0.018-0.006c0.005,0.003,0.008,0.008,0.008,0.013
				c0,0.002-0.001,0.004-0.002,0.006c-0.021,0.045-0.104,0.182-0.135,0.231C614.433,265.129,614.429,265.132,614.424,265.132z"/>
		</g>
		<g>
			<path d="M613.8,265.906c-0.004,0-0.007-0.001-0.01-0.004c-0.006-0.006-0.006-0.015,0-0.02c0.033-0.033,0.063-0.064,0.092-0.096
				c0.005-0.005,0.014-0.006,0.02,0c0.005,0.005,0.006,0.014,0,0.019l0,0c0,0,0,0,0,0.001c-0.022,0.023-0.041,0.044-0.092,0.095
				c0,0,0,0.001-0.001,0.001l0,0C613.807,265.905,613.803,265.906,613.8,265.906z"/>
		</g>
		<g>
			<path d="M613.696,266.008c-0.004,0-0.008-0.002-0.01-0.005c-0.006-0.005-0.005-0.014,0-0.019
				c0.034-0.032,0.065-0.064,0.097-0.095l0,0c0.001-0.001,0.001-0.002,0.002-0.002c0,0,0-0.001,0.001-0.001
				c0.001-0.001,0.003-0.003,0.004-0.004c0.005-0.005,0.014-0.005,0.019,0c0.003,0.003,0.005,0.007,0.005,0.01
				c0,0.004-0.002,0.007-0.005,0.01c-0.135,0.133-0.092,0.09-0.104,0.102l0,0l0,0C613.702,266.006,613.699,266.008,613.696,266.008z
				"/>
		</g>
		<g>
			<path d="M613.253,266.392c-0.004,0-0.008-0.002-0.011-0.006c-0.002-0.002-0.003-0.005-0.003-0.008
				c0-0.004,0.002-0.008,0.006-0.011c0.116-0.092,0.229-0.187,0.334-0.282c0.006-0.005,0.014-0.005,0.02,0.001
				c0.002,0.002,0.003,0.006,0.003,0.009c0,0.004-0.001,0.008-0.004,0.011c-0.105,0.096-0.219,0.191-0.336,0.283
				C613.26,266.391,613.256,266.392,613.253,266.392z"/>
		</g>
		<g>
			<path d="M612.398,266.968c-0.005,0-0.01-0.002-0.012-0.007c-0.002-0.002-0.002-0.004-0.002-0.007
				c0-0.004,0.002-0.009,0.007-0.012c0.029-0.017,0.135-0.078,0.251-0.15c0.006-0.005,0.015-0.002,0.019,0.004
				s0.002,0.015-0.004,0.019c-0.076,0.048-0.159,0.098-0.252,0.151C612.402,266.968,612.4,266.968,612.398,266.968z"/>
		</g>
		<linearGradient id="XMLID_3_" gradientUnits="userSpaceOnUse" x1="605.9629" y1="204.8262" x2="606.4369" y2="249.0253">
			<stop  offset="0" style="stop-color:#EDE582"/>
			<stop  offset="1" style="stop-color:#ECC057"/>
		</linearGradient>
		<path id="XMLID_1_" fill="url(#XMLID_3_)" d="M631.354,211.359c-0.413-15.841-18.77-30.75-36.404-21.366
			c-7.277,3.874-12.915,11.125-14.031,19.067c-0.689,4.914,0.442,9.586,2.755,14.044c4.138,7.98,10.844,13.106,13.127,18.769
			l0.003-0.001c0.211,0.49,0.521,0.931,0.881,1.317c3.104,3.333,10.938,4.012,15.594,1.324c1.048-0.605,2.052-1.464,2.552-2.564
			c0.058-0.124,0.313-0.787,0.896-1.825C620.63,233.141,631.688,224.216,631.354,211.359z"/>
		<path fill="#C0AD88" d="M607.573,251.396c-2.59,0.504-5.782,0.374-8.019-0.82c-0.71-0.381-1.41-0.92-1.769-1.645
			C600.303,250.949,604.283,251.631,607.573,251.396z"/>
		<path fill="#C0AD88" d="M613.462,266.2c0.085-0.062,0.171-0.14,0.248-0.225c-0.435,0.458-2.236,2.321-3.005,3.114
			c-1.95,2.012-6.967,2.012-8.908,0c-0.125-0.133-0.249-0.257-0.381-0.389c-0.839-0.87-1.686-1.74-2.532-2.617
			c-0.038-0.039-0.077-0.086-0.116-0.124c0.427,0.419,0.939,0.784,1.522,1.095c0.372,0.21,0.776,0.389,1.195,0.544
			c0.109,0.038,0.218,0.077,0.327,0.116c0.069,0.031,0.132,0.047,0.201,0.077c0.023,0.009,0.047,0.016,0.07,0.016
			c0.016,0.008,0.039,0.016,0.054,0.016c0.141,0.047,0.272,0.086,0.404,0.117c0.085,0.023,0.171,0.046,0.256,0.062
			c0.086,0.023,0.172,0.047,0.257,0.07c0.303,0.069,0.613,0.124,0.932,0.171c0.109,0.023,0.226,0.039,0.342,0.054
			c0.202,0.023,0.404,0.047,0.613,0.063c0.148,0.016,0.304,0.031,0.459,0.039c0.062,0,0.116,0.008,0.179,0.008h0.038
			c0.226,0.008,0.443,0.016,0.668,0.016c0.901,0,1.81-0.078,2.68-0.241c0.179-0.031,0.35-0.069,0.521-0.108
			c0.031,0,0.055-0.008,0.077-0.016c0.318-0.07,0.63-0.155,0.925-0.256c0.979-0.319,1.871-0.754,2.617-1.313
			C613.229,266.395,613.346,266.302,613.462,266.2z"/>
		<path fill="#B19069" d="M614.945,260.337v3.067c0,0.909-0.42,1.725-1.057,2.393l-0.093,0.093
			c-0.023,0.031-0.055,0.063-0.086,0.086c-0.077,0.077-0.163,0.147-0.248,0.225c-0.116,0.102-0.233,0.194-0.357,0.288
			c-0.738,0.574-1.631,1.001-2.617,1.313c-0.295,0.101-0.606,0.186-0.925,0.256c-0.022,0.008-0.046,0.016-0.077,0.016
			c-0.171,0.039-0.342,0.077-0.521,0.108c-0.87,0.163-1.778,0.241-2.68,0.241c-0.225,0-0.45-0.008-0.668-0.016h-0.038
			c-0.094-0.008-0.187-0.008-0.272-0.023c-0.124,0-0.248-0.008-0.365-0.023c-0.209-0.016-0.411-0.039-0.613-0.063
			c-0.116-0.015-0.232-0.03-0.342-0.054c-0.318-0.047-0.629-0.102-0.932-0.171c-0.171-0.039-0.342-0.078-0.513-0.132
			c-0.132-0.031-0.264-0.07-0.404-0.117c-0.015,0-0.038-0.008-0.054-0.016c-0.023,0-0.047-0.007-0.07-0.016
			c-0.613-0.193-1.188-0.427-1.708-0.714c-0.536-0.287-1.018-0.621-1.422-0.994c-0.038-0.039-0.077-0.086-0.116-0.124
			c0.005,0.004,0.011,0.008,0.015,0.013c-0.369-0.367-0.681-0.764-0.9-1.209c-0.256-0.536-0.342-1.025-0.318-1.538
			c0.008,0.07,0.008,0.132,0.023,0.202c0.008,0.063,0.023,0.124,0.039,0.179c0.016,0.07,0.031,0.132,0.055,0.187
			c0.022,0.062,0.046,0.124,0.077,0.187c0.023,0.062,0.055,0.116,0.086,0.179c0.03,0.054,0.069,0.116,0.108,0.171
			c0.039,0.054,0.077,0.116,0.124,0.171c0.086,0.108,0.179,0.217,0.287,0.318c0.055,0.054,0.109,0.108,0.171,0.155
			c0.117,0.108,0.241,0.201,0.373,0.295c0.194,0.14,0.42,0.271,0.652,0.396c0.078,0.039,0.163,0.078,0.241,0.117
			c0.085,0.046,0.171,0.085,0.256,0.116c1.033,0.442,2.307,0.738,3.689,0.839c0.101,0.008,0.194,0.016,0.295,0.023
			c0.373,0.016,0.753,0.023,1.142,0.008c0.132,0,0.264-0.008,0.404-0.016c0.527-0.023,1.056-0.078,1.592-0.171
			c0.062,0,0.116-0.008,0.171-0.023c0.132-0.023,0.264-0.047,0.389-0.077c0.008,0,0.015,0,0.015,0
			c1.173-0.241,2.33-0.63,3.395-1.204c0.279-0.14,0.559-0.303,0.831-0.481c0.14-0.094,0.279-0.187,0.419-0.287
			c0.668-0.489,1.235-1.049,1.67-1.662c0.101-0.148,0.202-0.304,0.287-0.459c0.07-0.124,0.133-0.24,0.187-0.364
			c0.047-0.094,0.086-0.187,0.117-0.28c0.038-0.093,0.077-0.194,0.101-0.295c0.031-0.101,0.062-0.202,0.085-0.311
			c0.023-0.094,0.039-0.187,0.055-0.279c0.008-0.039,0.016-0.07,0.016-0.109C614.93,260.616,614.945,260.477,614.945,260.337z"/>
		<path fill="#EDDFDF" d="M612.123,218.271c-0.154,0.365-0.772,0.351-1.096,0.039c-0.186-0.18-0.211-0.375-0.161-0.492
			c0.135-0.383,0.773-0.374,1.104-0.056C612.145,217.933,612.184,218.122,612.123,218.271z"/>
		<path fill="#E8DDA5" d="M608.07,230.018c-0.138,0.353-0.993,0.395-1.282,0.051c-0.069-0.083-0.087-0.172-0.059-0.254
			c0.013-0.026,4.12-11.947,4.13-11.972c-0.111,0.399,0.466,0.8,0.939,0.682c0.16-0.04,0.274-0.135,0.324-0.253
			C611.179,220.946,608.097,230.018,608.07,230.018z"/>
		<path fill="#BAA286" d="M608.072,230.018c0.221-0.64,0.44-1.279,0.661-1.919c1.055,0.742,0.93,1.806-0.207,2.46
			c-1.424,0.823-3.783,0.673-4.879-0.27c-0.967-0.833-0.575-1.863,0.584-2.428c0.198,0.798,0.168,0.842,0.355,0.967
			c0.436,0.293,1.255,0.115,1.192-0.267c-0.088-0.359-0.176-0.719-0.266-1.078c0.674-0.097,1.37-0.062,1.989,0.087
			c-0.012,0.034-0.758,2.211-0.773,2.243c-0.132,0.384,0.686,0.646,1.155,0.392c0.08-0.044,0.154-0.107,0.186-0.188H608.072z"/>
		<path fill="#8F7A67" d="M609.125,230.078c0.191-0.225,0.33-0.503,0.33-0.8h0.002c0,0.662,0,4.744,0,5.57
			c0,0.552-0.428,1.004-0.931,1.293c-2,1.154-5.423,0.33-5.423-1.296c0-0.639,0-4.861,0-5.574h0.002c0,0.416,0.23,0.75,0.542,1.019
			C605.003,231.457,608.067,231.327,609.125,230.078z"/>
		<path fill="#EDE582" d="M609.457,230.151c0,1.565,0,3.131,0,4.696c0,0.552-0.428,1.004-0.931,1.293
			c-1.946,1.123-5.423,0.37-5.423-1.296c0-1.569,0-3.138,0-4.708c-5.854,1.312-7.464,5.676-3.013,8.245
			c3.372,1.945,8.891,1.977,12.317,0C616.861,235.811,615.238,231.472,609.457,230.151z"/>
		<path fill="#EDDFDF" d="M601.644,211.878c-0.012,0.042-0.044,0.072-0.076,0.099c-0.361,0.31-1.301,0.4-1.209,0.095
			c0.013-0.041,0.044-0.071,0.076-0.098C600.809,211.656,601.743,211.578,601.644,211.878z"/>
		<path fill="#E8DDA5" d="M601.647,211.815L601.647,211.815c1.274,5.164,3.896,15.782,4.132,16.747
			c0.063,0.383-0.757,0.56-1.192,0.267c-0.081-0.055-0.151-0.131-0.171-0.219c-0.008-0.025-4.085-16.471-4.06-16.471
			c0.055,0.22,0.873,0.128,1.211-0.162C601.618,211.935,601.663,211.879,601.647,211.815z"/>
		<path fill="#E6AD23" d="M614.967,234.824c0,5.288,0.001,4.698-0.002,4.803c-0.053,1.248-0.903,2.487-2.554,3.439
			c-3.406,1.967-8.935,1.964-12.334,0c-1.703-0.982-2.555-2.271-2.555-3.561v-4.683c0,1.289,0.852,2.578,2.555,3.562
			c3.399,1.962,8.928,1.966,12.334,0C614.115,237.401,614.967,236.112,614.967,234.824z"/>
		<path fill="#EDEAB9" d="M600.686,206.624c-0.704,1.315-2.147,3.93-3.319,4.799c-1.531,1.136-2.303-0.878-2.493-2.786
			c-0.574-5.747,3.2-12.109,7.35-14.282c0.914-0.479,2.15-0.839,2.598,0.096C605.85,196.609,601.788,204.564,600.686,206.624z"/>
		<g>
			<path fill="#BCAA9B" d="M611.421,218.509C611.427,218.489,611.415,218.495,611.421,218.509L611.421,218.509z"/>
			<path fill="#BCAA9B" d="M605.222,230.381c0.008-0.008-0.084-0.206-0.203-0.44c-0.507-0.987-0.85-2.052-0.878-2.052
				c-0.007,0-0.068,0.069-0.136,0.154c-0.558,0.702-0.301,1.434,0.416,1.948C604.603,230.122,605.194,230.41,605.222,230.381z"/>
			<path fill="#BCAA9B" d="M616.646,241.417c0,0.831-0.008,2.206-0.008,4.528c-0.325,1.266-0.566,1.662-1.351,2.524
				c0,0.008-0.016,0.016-0.016,0.016c-0.102,0.116-0.21,0.233-0.326,0.365c-0.008,0.008-0.016,0.016-0.023,0.023
				c0,0.132,0,0.256-0.008,0.373c-0.008,1.584-0.008,2.144-0.086,2.563c-0.022,0.101-0.046,0.186-0.077,0.287
				c-0.008,0.039-0.023,0.085-0.047,0.132c-0.031,0.093-0.069,0.194-0.124,0.318c-0.008,0.047-0.031,0.101-0.055,0.155
				c0,0.008-0.008,0.016-0.008,0.023c0.334,0.885,0.373,0.878,0.389,2.369v0.287c0.023,2.027-0.031,2.027-0.389,3.021v0.008
				c0.318,0.87,0.389,0.972,0.396,2.292c0.008,0.016,0.008,0.03,0,0.046c0.008,0.458,0.008,1.064,0.008,1.896h0.023v0.761
				c0,0.909-0.42,1.725-1.057,2.393l-0.093,0.093c-0.023,0.031-0.055,0.063-0.086,0.086c-0.435,0.458-2.236,2.321-3.005,3.114
				c-1.95,2.012-6.967,2.012-8.908,0c-0.125-0.133-0.249-0.257-0.381-0.389c-0.031-0.108-0.047-0.194-0.047-0.256
				c-0.008-0.226-0.039-0.241-0.629-0.886c-0.179-0.194-0.334-0.365-0.435-0.481c-0.008-0.008-0.016-0.016-0.016-0.023
				c-0.07-0.077-0.109-0.124-0.109-0.124c0.443,0.271,0.87,0.489,1.305,0.668c0.109,0.038,0.218,0.077,0.327,0.116
				c0.093,0.039,0.178,0.063,0.271,0.093c0.016,0.008,0.039,0.016,0.054,0.016c0.141,0.047,0.272,0.086,0.404,0.117
				c0.085,0.023,0.171,0.046,0.256,0.062c0.801,0.194,1.624,0.288,2.509,0.381c0.031,0.008,0.063,0.008,0.094,0.016
				c0.054,0,0.116,0.008,0.179,0.016v-0.008c0-0.56,0.008-1.096,0.008-1.654v-0.016c0.022,0,0.513-0.039,1.017-0.086
				c0.063-0.007,0.133-0.015,0.21-0.022c0.124-0.016,0.249-0.031,0.365-0.047c0.062,0,0.116-0.008,0.171-0.023
				c0.187-0.023,0.326-0.055,0.389-0.077c0.008,0,0.015,0,0.015,0c0.008-0.008,0.008-0.008,0.008-0.008
				c0.008-0.008,0.016-0.008,0-0.016c0,0,0,0-0.008,0c-0.03-0.008-0.108-0.016-0.209-0.023c-1.057,0-2.485-0.265-3.479-0.637
				c-1.864-0.707-3.363-1.608-3.774-2.742c-0.086-0.232-0.14-0.645-0.094-0.753c0-0.008,0-0.016,0.008-0.023
				c0.008-0.016,0.124,0.023,0.257,0.093c0.132,0.07,0.271,0.133,0.427,0.187c0.427,0.155,0.932,0.272,1.46,0.35
				c0.086,0.016,0.171,0.031,0.257,0.039c0.815,0.101,1.669,0.14,2.392,0.147c0.07,0,0.14,0.008,0.202,0
				c0.132,0.008,0.264,0.008,0.389,0.008v-2.05c1.646-0.094,1.957-0.218,2.144-0.218c0.016,0,0.03-0.016,0.03-0.031
				c0-0.008-0.022-0.016-0.069-0.016c-0.016-0.008-0.039-0.008-0.063-0.008c-0.108-0.016-0.287-0.031-0.489-0.039
				c-1.397-0.062-2.843-0.435-4.069-1.056c-1.623-0.823-2.804-1.74-2.975-2.788c-0.031-0.202-0.031-0.303,0.023-0.334
				c0,0,0,0,0.008,0c0.062-0.023,0.186,0.031,0.388,0.132c0.07,0.031,0.133,0.063,0.202,0.093c0.008,0,0.008,0,0.008,0
				c1.421,0.591,3.417,0.629,4.862,0.629v-0.054c0-0.194-0.008-0.233-0.334-0.637c-0.342-0.42-1.135-1.305-1.251-1.398
				c-0.031-0.023-0.21-0.108-0.396-0.194c-1.352-0.629-2.556-1.817-3.045-3.021c-0.171-0.42-0.357-0.762-0.326-0.979
				c0.008-0.102,0.008-0.179-0.016-0.179c-0.031,0-0.171-0.085-0.334-0.202c-0.233-0.163-0.521-0.388-0.66-0.528
				c-0.218-0.209-0.497-0.559-0.544-0.668c-0.016-0.039,0-0.046,0.055-0.007c0.102,0.07,0.21,0.14,0.318,0.217
				c0.155,0.085,0.326,0.179,0.497,0.264c0.147,0.078,0.303,0.147,0.466,0.209c0.451,0.202,0.94,0.373,1.453,0.521c0,0,0,0,0.008,0
				c0.737,0.209,1.498,0.373,2.236,0.489c0.132,0.023,0.264,0.039,0.396,0.055c0.016,0.008,0.031,0.008,0.039,0.008
				c0.436,0.062,0.854,0.108,1.235,0.14v-0.031c0-0.87,0.016-3.581,0.016-4.838v-0.412c2.671,0.039,3.883,0.078,6.757-1.087
				c0.225-0.085,0.69-0.28,0.505-0.233c-0.016,0.008-0.047,0.016-0.094,0.031c-0.023,0.008-0.047,0.023-0.077,0.031
				c-0.155,0.054-0.381,0.116-0.591,0.14c-0.924,0.101-6.236-0.489-6.275-0.513c-0.054-0.039-0.046-3.176-0.046-4.691
				c0.271,0,0.535,0.016,0.8,0.016c3.106-0.008,5.979-1.087,7.471-2.571c0.265-0.264,0.606-0.714,0.606-0.769
				c-0.008-0.008-0.078,0.007-0.233,0.054c-0.163,0.039-0.458,0.093-0.668,0.116c-0.295,0.031-6.928,0.085-7.262-0.007
				c0-3.301-0.031-4.652-0.031-7.945c-0.14-0.023-0.66,0.225-0.714,0.179c-0.039-0.047-4.101-16.45-4.101-16.706
				c0.101-0.063,0.271-0.226,0.279-0.187c0.008,0.031,3.79,15.417,3.798,15.424c0,0,1.553-0.078,1.965,0.132
				c0.039,0,0.116-0.357,0.14-0.396c0,0.062,0.194,0.543,0.357,0.893c0.403,0.847-0.055-2.02,0.171-1.336
				c-0.016,0.047,0.147,0.381,0.194,0.551c0.054,0.202,0.108,0.288,0.155,0.233c0.039-0.047,2.912-8.994,2.912-9.025
				c0.008,0.016,0.047,0.023,0.116,0.031c0.373,0.054,0.552-0.202,0.583-0.249c-0.147,0.466-3.363,9.833-3.363,9.833
				s0.668,0.396,0.676,0.885c0.016,1.258,0.031,2.555,0.031,4.046c0.419,0,1.002,0.101,1.413,0.101
				c0.07-0.023,2.595-1.072,2.625-1.095c0.047,0,0.63,0.583,0.63,0.629c0,0.054-0.87,0.38-0.87,0.427
				c0,0.023,0.055,0.039,0.132,0.039c0.194,0,0.854,0.125,1.002,0.187c0.101,0.047,0.257,0.109,0.342,0.334
				c0.233,0.613,0.202,0.575,0.233,3.673c0.085,0.086,0.116,0.164,0.201,0.241c0.699,0.691,1.127,1.398,1.367,2.26
				c0.055,0.187,0.078,0.187,0.094,0.443C616.646,240.478,616.646,240.796,616.646,241.417z"/>
		</g>
		<g>
			<path fill="#EEE6D9" d="M610.349,218.821c-0.672-0.123-0.929-0.829-0.907-1.511c0.504-0.383,1.06-1.068,1.081-1.641
				c0.024-0.586-0.708-0.89-1.297,0.309c-0.16,0.331-0.263,0.685-0.306,1.034c-1.129,0.717-2.148,0.188-2.1-1.219
				c0.502-0.382,1.057-1.066,1.078-1.638c0.029-0.619-0.723-0.854-1.297,0.309c-0.157,0.326-0.261,0.68-0.303,1.031
				c-1.1,0.699-2.152,0.227-2.103-1.214c0.499-0.379,1.057-1.07,1.078-1.641c0.024-0.591-0.711-0.884-1.297,0.309
				c-0.157,0.326-0.261,0.68-0.304,1.031c-0.351,0.224-0.75,0.359-1.139,0.306c-1.03-0.136-1.16-1.544-0.737-2.517l0,0
				c0.259,0.191,0.623,0.083,0.747-0.213c0.414-0.998-0.534-1.454-1.191-0.123c-0.651,1.338-0.351,3.194,1.109,3.392
				c0.411,0.058,0.822-0.035,1.199-0.216c0.113,1.485,1.33,2.136,2.624,1.515c0.115,1.517,1.353,2.118,2.621,1.518
				c0.067,0.837,0.521,1.571,1.36,1.718c0.16,0.028,0.307-0.101,0.311-0.263C610.581,218.99,610.511,218.851,610.349,218.821z
				 M609.918,215.886c-0.055,0.133-0.141,0.284-0.245,0.426C609.729,216.177,609.825,216.001,609.918,215.886z M607.292,214.375
				c-0.056,0.13-0.138,0.278-0.243,0.421C607.101,214.671,607.19,214.509,607.292,214.375z M604.67,212.855
				c-0.055,0.133-0.141,0.283-0.245,0.426C604.473,213.165,604.578,212.97,604.67,212.855z M602.044,211.348
				c-0.056,0.13-0.141,0.278-0.243,0.419C601.854,211.64,601.944,211.475,602.044,211.348z"/>
			<path fill="#EED9D9" d="M609.918,215.886c-0.055,0.133-0.141,0.284-0.245,0.426C609.729,216.177,609.825,216.001,609.918,215.886
				z"/>
			<path fill="#EED9D9" d="M607.292,214.375c-0.056,0.13-0.138,0.278-0.243,0.421C607.101,214.671,607.19,214.509,607.292,214.375z"
				/>
			<path fill="#EED9D9" d="M604.67,212.855c-0.055,0.133-0.141,0.283-0.245,0.426C604.473,213.165,604.578,212.97,604.67,212.855z"
				/>
		</g>
	</g>
</g>
<g>
	<g>
		<path fill="#AA226D" d="M421.843,454.996c0,2.023-0.964,4.049-2.891,6.071v-8.588c1.927-2.023,2.891-4.047,2.891-6.069
			C421.843,449.271,421.843,452.133,421.843,454.996z"/>
		<polygon fill="#D2448D" points="418.952,452.479 418.952,461.067 412.967,458.929 412.967,450.342 		"/>
		<path fill="#AA226D" d="M415.123,444.762c0.074,0.3,0.109,0.606,0.109,0.918c0,1.399-0.733,2.928-2.202,4.59
			c-0.618-0.535-1.368-1.056-2.245-1.563c-2.858-1.65-5.932-2.634-9.222-2.952c-3.288-0.316-6.476-0.033-9.562,0.851
			c-3.087,0.884-5.856,2.032-8.308,3.448c-2.767,1.599-4.875,3.223-6.323,4.873c-0.684-0.729-1.203-1.511-1.565-2.345
			c-0.272-0.632-0.41-1.268-0.41-1.91c0-1.188,0.466-2.397,1.399-3.626c1.437-1.894,3.736-3.754,6.899-5.58
			c2.451-1.416,5.221-2.564,8.308-3.448c3.086-0.884,6.273-1.167,9.562-0.851c3.29,0.318,6.363,1.302,9.222,2.952
			C413.271,441.555,414.718,443.102,415.123,444.762z"/>
		<path fill="#8140FF" d="M405.599,394.417c0-1.427-0.404-2.617-1.212-3.576c-0.432-0.513-0.962-0.911-1.591-1.196
			c-0.551-0.251-1.175-0.416-1.874-0.494c-1.502-0.167-4.077,0.03-7.728,0.596c-3.385,0.523-6.769,1.046-10.153,1.569v6.69v6.285
			c3.662-0.565,7.323-1.132,10.984-1.699c2.98-0.46,5.117-0.957,6.41-1.489C403.508,399.839,405.599,397.713,405.599,394.417z
			 M407.713,412.923c0-1.602-0.484-2.917-1.455-3.949c-0.38-0.405-0.819-0.746-1.316-1.023v-0.001
			c-0.77-0.432-1.676-0.711-2.72-0.84c-1.723-0.211-4.199-0.068-7.434,0.433c-3.916,0.605-7.831,1.211-11.747,1.816v8.477v6.286
			c12.884-1.993,15.481-2.33,17.222-2.869c1.547-0.479,2.841-1.072,3.88-1.776c1.04-0.704,1.895-1.632,2.565-2.778
			C407.378,415.548,407.713,414.29,407.713,412.923z M414.678,411.847c0,2.011-0.503,3.958-1.508,5.842s-2.246,3.408-3.725,4.575
			c-3.727,2.937-9.068,4.242-13.756,4.968c-6.457,0.999-12.913,1.997-19.369,2.997v-42.94c6.352-0.981,12.704-1.964,19.058-2.947
			c3.881-0.601,6.992-0.648,9.337-0.142s4.181,1.561,5.51,3.16c0.511,0.616,0.919,1.259,1.23,1.919
			c1.34,2.849,0.868,6.034-1.005,8.899c-0.339,0.52-0.729,1.021-1.168,1.503c-1.086,1.194-2.475,2.276-4.168,3.247
			c3.071,0.285,5.435,1.219,7.085,2.799c0.724,0.69,1.288,1.47,1.695,2.339c0.004,0.009,0.007,0.017,0.012,0.025
			C414.42,409.199,414.678,410.45,414.678,411.847z"/>
		<path fill="#8140FF" d="M411.231,402.328c0.887,1.912,1.774,3.823,2.663,5.737c-0.407-0.869-0.972-1.648-1.695-2.339
			c-1.65-1.58-4.014-2.514-7.085-2.799c1.693-0.971,3.082-2.053,4.168-3.247c0.804,0.719,1.448,1.569,1.901,2.545
			C411.2,402.26,411.215,402.293,411.231,402.328z"/>
		<path fill="#E288B9" d="M375.396,450.672c0,0.643,0.138,1.278,0.41,1.91c0.362,0.834,0.882,1.615,1.565,2.345v0.002
			c0.787,0.84,1.786,1.61,3,2.311c2.756,1.591,5.885,2.479,9.386,2.665c3.499,0.185,7.152-0.43,10.958-1.845l3.678,3.559
			c-5.074,1.737-10.012,2.445-14.813,2.123c-4.803-0.321-9.14-1.602-13.014-3.837c-4.007-2.313-6.451-4.667-7.33-7.058
			c-0.29-0.791-0.437-1.588-0.437-2.395c0-1.636,0.599-3.307,1.793-5.011c1.785-2.542,4.452-4.84,8.003-6.89
			c7.848-4.531,16.88-6.125,25.24-4.715c4.228,0.711,7.981,2.016,11.263,3.909c3.719,2.148,5.9,4.501,6.543,7.06
			c0.135,0.535,0.202,1.067,0.202,1.603v0.002c0,2.022-0.964,4.046-2.891,6.069l-5.985-2.138c0.021-0.024,0.044-0.048,0.063-0.072
			c1.469-1.662,2.202-3.19,2.202-4.59c0-0.312-0.035-0.618-0.109-0.918c-0.405-1.66-1.852-3.207-4.338-4.643
			c-2.858-1.65-5.932-2.634-9.222-2.952c-3.288-0.316-6.476-0.033-9.562,0.851c-3.087,0.884-5.856,2.032-8.308,3.448
			c-3.163,1.826-5.463,3.687-6.899,5.58C375.861,448.274,375.396,449.484,375.396,450.672z"/>
		<path fill="#A68EFE" d="M408.754,383.453c0.902,1.94,1.802,3.882,2.704,5.824l-0.003,0.001c-0.312-0.66-0.72-1.303-1.23-1.919
			c-1.329-1.6-3.165-2.653-5.51-3.16s-5.456-0.459-9.337,0.142c-6.354,0.983-12.706,1.966-19.058,2.947l-2.724-5.865
			c6.353-0.982,12.706-1.966,19.058-2.947c3.881-0.602,6.995-0.648,9.339-0.142c2.345,0.507,4.182,1.559,5.51,3.16
			C408.021,382.118,408.438,382.771,408.754,383.453z"/>
		<path fill="#A68EFE" d="M407.713,412.923c0,1.367-0.335,2.625-1.005,3.774c-0.671,1.146-1.525,2.074-2.565,2.778
			c-1.039,0.704-2.333,1.297-3.88,1.776c-1.74,0.539-4.338,0.876-17.222,2.869v-6.286c10.075-1.559,12.803-1.922,14.5-2.448
			c1.546-0.479,2.839-1.072,3.88-1.776c1.04-0.705,1.895-1.631,2.564-2.78c0.521-0.894,0.84-1.853,0.956-2.88
			c0.497,0.277,0.937,0.618,1.316,1.023C407.229,410.006,407.713,411.321,407.713,412.923z"/>
		<path fill="#A68EFE" d="M404.387,390.841c0.808,0.959,1.212,2.149,1.212,3.576c0,3.296-2.091,5.422-5.163,6.686
			c-1.293,0.532-3.43,1.029-6.41,1.489c-3.661,0.567-7.322,1.134-10.984,1.699v-6.285c2.755-0.427,5.508-0.853,8.263-1.279
			c2.979-0.461,5.117-0.957,6.411-1.489c2.601-1.07,4.652-2.825,5.081-5.593C403.425,389.93,403.955,390.328,404.387,390.841z"/>
		<path fill="#D2448D" d="M368.801,459.04h-0.002c0-2.863,0-5.727,0-8.588c0,0.807,0.146,1.604,0.437,2.395
			c0.879,2.391,3.323,4.744,7.33,7.058c3.874,2.235,8.211,3.516,13.014,3.837c4.802,0.322,9.739-0.386,14.813-2.123v8.588
			c-5.074,1.737-10.012,2.445-14.813,2.123c-4.803-0.322-9.14-1.602-13.014-3.837c-4.007-2.313-6.451-4.667-7.33-7.06
			C368.945,460.645,368.801,459.847,368.801,459.04z"/>
		<polygon fill="#BFB5F4" points="373.597,392.445 373.597,381.423 376.32,387.288 376.32,430.229 373.597,424.362 373.597,414.614 
					"/>
		<polygon fill="#AA226D" points="373.597,392.445 373.597,414.614 371.736,415.689 356.516,363.962 363.953,359.668 		"/>
		<path fill="#D2448D" d="M357.46,381.226c-0.429-1.561-0.817-2.98-1.172-4.288c-1.153-4.259-1.938-7.313-2.537-10.061
			c-0.474,2.48-1.142,4.827-2.004,7.044c-1.337,3.437-2.699,6.85-4.083,10.237l12.605,7.278
			C359.176,387.449,358.25,384.102,357.46,381.226z M356.516,363.962l15.221,51.728l-5.607-3.237l-4.336-15.51l-10.809-6.24
			l-4.742-2.736l-4.083,10.647l-5.226-3.018l14.282-34.694L356.516,363.962z"/>
		<polygon fill="#E288B9" points="363.953,359.668 356.516,363.962 351.215,360.901 358.652,356.607 		"/>
		<path fill="#E288B9" d="M360.27,391.437l-12.605-7.278l7.436-4.294l2.36,1.361C358.25,384.102,359.176,387.449,360.27,391.437z"/>
		<path fill="#AA226D" d="M353.751,366.877c0.599,2.747,1.384,5.802,2.537,10.061c-0.394,0.978-0.79,1.953-1.188,2.927l-7.436,4.294
			c1.384-3.388,2.746-6.801,4.083-10.237C352.609,371.704,353.277,369.357,353.751,366.877z"/>
		<polygon fill="#AA226D" points="350.984,390.702 349.597,394.319 342.159,398.613 346.242,387.966 		"/>
	</g>
	<g>
		<path fill="#B0A7C2" d="M409.282,399.681c1.639,1.303,2.28,3.317,3.069,5.025c0.481,1.044,0.813,1.851,1.316,2.884
			c1.42,2.914,1.204,5.767,0.227,8.506c-0.725,1.593-1.426,2.785-1.426,2.785c0.708-0.067,1.26-0.142,1.815-0.168
			c2.251-0.106,4.503-0.214,6.756-0.284c0.779-0.024,1.577-0.087,2.132,0.74c0.139,0.206,0.729,0.165,1.106,0.146
			c2.779-0.142,5.559-0.281,8.335-0.479c1.005-0.071,1.538,0.349,1.914,1.239c0.686,1.622,1.449,3.21,2.257,4.979
			c-0.54,0.197-0.961,0.417-1.407,0.502c-2.905,0.553-5.809,1.124-8.728,1.599c-4.837,0.786-9.688,1.486-14.528,2.255
			c-3.23,0.513-6.451,0.941-9.746,0.906c-8.148-0.086-26.055-0.087-26.055-0.087v-42.94l7.241-1.119c0,0,8.403-1.403,14.049-2.195
			c3.085-0.122,5.573-0.451,8.252,0.563c1.061,0.4,2.13,0.736,3.038,1.575c2.157,1.727,3.11,3.652,3.306,6.11
			c0.1,1.882-0.218,3.313-1.756,5.956C410.121,398.639,409.692,399.116,409.282,399.681z M383.041,417.835
			c0,0,6.395,0.725,9.557,0.143c2.431-0.448,4.903-0.72,7.189-1.739c3.007-1.34,4.878-3.579,5.33-6.899
			c0.164-1.201,0.076-1.362-1.036-1.784c-1.736-0.657-4.438-0.633-6.231-0.409c-4.463,0.555-14.809,2.213-14.809,2.213V417.835z
			 M383.041,398.006c0,0,8.075,0.354,11.854-0.572c1.899-0.465,3.765-0.963,5.358-2.183c1.477-1.132,2.374-2.595,2.685-4.421
			c0.163-0.962-0.021-1.273-0.972-1.551c-0.378-0.109-0.783-0.165-1.177-0.168c-1.195-0.012-2.406-0.104-3.583,0.049
			c-4.028,0.521-14.165,2.155-14.165,2.155V398.006z"/>
		<path fill="#B0A7C2" d="M356.516,363.962c2.499-1.438,4.898-2.831,7.438-4.294c0.598,1.988,9.644,32.777,9.644,32.777
			s0.105,14.421,0.104,20.964c0,1.686-0.002,1.686-1.876,2.376C366.736,398.498,361.625,381.322,356.516,363.962z"/>
		<path fill="#B0A7C2" d="M381.518,457.828c-2.398-1.158-4.379-2.539-5.615-5.035c-0.889-1.687-0.57-3.066,0.225-4.771
			c0.812-1.449,1.971-2.6,3.233-3.615c4.862-3.91,10.402-6.336,16.582-7.204c1.541-0.216,3.264-0.161,4.944-0.161
			c0.01,1.375,0.042,3.03-0.076,4.456c-0.126,1.511,1.005,2.924,1.168,4.301c-1.683,0.428-3.438,0.594-4.988,1.045
			c-3.961,1.151-7.592,2.994-10.88,5.477C384.246,453.728,382.451,455.402,381.518,457.828z"/>
		<path fill="#B0A7C2" d="M346.242,387.966c1.607,0.924,3.211,1.856,4.742,2.736c-0.127,0.529-0.44,1.088-0.597,1.741
			c0.369,0.105,0.723,0.265,1.089,0.301c2.798,0.278,5.236,1.418,7.688,2.755c1.958,1.068,2.753,2.438,3.519,4.567
			c0,0,0.518,1.865,0.949,3.449c0.101,0.372,0.697,2.325,0.823,2.945c-1.205-0.686-2.402-1.514-3.393-2.081
			c-1.425-0.818-2.879-1.593-4.26-2.479c-1.006-0.645-2.092-0.898-3.236-1.095c-3.671-0.629-7.335-1.3-11.001-1.958
			c-0.083-0.016-0.158-0.076-0.405-0.2C343.424,395.157,344.795,391.518,346.242,387.966z"/>
		<path fill="#B0A7C2" d="M389.433,463.714c5.167,0.29,10.041-0.369,14.967-2.063c0,1.768,0,3.287,0,4.846
			c0.442,0.066,0.744,0.177,1.028,0.143c1.012-0.12,1.76,0.257,2.418,1.018c0.737,0.851,1.563,1.624,2.412,2.497
			c-6.75,2.653-13.714,2.279-20.787,2.166C389.324,469.468,389.392,466.724,389.433,463.714z"/>
		<path fill="#B0A7C2" d="M418.952,461.067v-8.588c0,0,2.708-2.321,2.891-6.069c0.314,0.128,0.44,0.701,0.667,0.853
			c1.321,0.88,2.562,1.855,3.542,3.125c1.841,2.386,2.343,5.326,0.571,8.229c-0.184,0.3-0.391,0.585-0.579,0.882
			c-0.68,1.064-1.515,1.682-2.913,1.521C421.792,460.867,418.952,461.067,418.952,461.067z"/>
		<path fill="#B0A7C2" d="M355.091,379.854c0.64,0.392,1.881,1.002,2.369,1.371c0,0,0.034,0.257,0.151,0.629
			c0.423,1.348,0.74,2.729,1.154,4.314c-3.777-0.584-7.365-1.275-11.071-1.993c1.916-5.615,5.093-11.381,6.056-17.299
			c0.206,0.786,0.517,2.324,0.719,3.112c0.463,1.805,1.283,5.165,1.818,6.948c0,0-0.095,0.361-0.564,1.294
			C355.486,378.701,355.336,379.216,355.091,379.854z"/>
	</g>
</g>
<g>
	<g>
		<path fill="#EBEEC1" d="M352.476,315.651l-56.7,32.733l-41.543-23.987c13.53-7.811,48.953-28.259,56.701-32.733
			C317.141,295.25,328.126,301.597,352.476,315.651z"/>
		<polygon fill="#D3D3AF" points="326.86,331.304 308.753,349.411 300.339,346.616 		"/>
		<polygon fill="#BEBE9E" points="308.753,349.411 326.86,331.304 328.891,330.129 308.753,350.274 		"/>
		<polygon fill="#BEBE9E" points="308.753,349.411 308.753,350.274 299.398,347.154 300.339,346.616 		"/>
		<polygon fill="#D3D3AF" points="305.42,294.848 281.885,308.434 297.955,292.357 		"/>
		<path fill="#BEBE9E" d="M295.775,348.385l56.7-32.733v0.863c-6.291,3.632-56.514,32.626-56.7,32.734V348.385z"/>
		<polygon fill="#D3D3AF" points="278.75,339.413 257.862,332.45 261.088,329.224 		"/>
		<polygon fill="#BEBE9E" points="257.862,332.45 278.75,339.413 282.267,341.451 257.862,333.313 		"/>
		<path fill="#F1F1CE" d="M254.232,324.397l41.543,23.987v0.864c-3.936-2.272-39.537-22.829-41.543-23.988V324.397z"/>
		<g>
			<path fill="#E0BE95" d="M360.521,310.677l-9.23,5.33l-44.547-25.722l9.231-5.325C316.043,284.999,356.46,308.329,360.521,310.677
				z"/>
			<polygon fill="#C48B5E" points="360.521,311.919 351.291,317.244 351.291,316.007 360.521,310.677 			"/>
			<polygon fill="#D8AA7D" points="351.291,317.244 306.744,291.528 306.744,290.285 351.291,316.007 			"/>
			<g>
				<path fill="#7F542E" d="M319.63,287.072c-6.568,3.792-6.15,3.577-6.29,3.577c-0.359,0-0.462-0.466-0.168-0.638l5.78-3.336
					L319.63,287.072z"/>
			</g>
			<g>
				<path fill="#7F542E" d="M323.809,289.479c-6.515,3.764-6.156,3.582-6.295,3.582c-0.344,0-0.477-0.466-0.168-0.637l5.776-3.337
					L323.809,289.479z"/>
			</g>
			<g>
				<path fill="#7F542E" d="M327.978,291.892c-6.569,3.791-6.158,3.578-6.29,3.578c-0.335,0-0.482-0.457-0.173-0.638l5.78-3.336
					L327.978,291.892z"/>
			</g>
			<g>
				<path fill="#7F542E" d="M332.151,294.3c-6.583,3.798-6.158,3.577-6.29,3.577c-0.354,0-0.471-0.463-0.173-0.637l5.78-3.336
					L332.151,294.3z"/>
			</g>
			<g>
				<path fill="#7F542E" d="M336.325,296.708c-6.569,3.79-6.155,3.577-6.295,3.577c-0.362,0-0.46-0.471-0.168-0.633l5.781-3.341
					L336.325,296.708z"/>
			</g>
			<g>
				<path fill="#7F542E" d="M340.499,299.115c-6.582,3.8-6.163,3.582-6.295,3.582c-0.336,0-0.48-0.453-0.173-0.637
					c5.854-3.379,5.74-3.337,5.785-3.337L340.499,299.115z"/>
			</g>
			<g>
				<path fill="#7F542E" d="M344.668,301.523c-6.581,3.802-6.159,3.582-6.291,3.582c-0.351,0-0.473-0.463-0.173-0.638l5.781-3.336
					L344.668,301.523z"/>
			</g>
			<g>
				<path fill="#7F542E" d="M348.842,303.936c-6.583,3.798-6.159,3.578-6.291,3.578c-0.354,0-0.47-0.465-0.173-0.638l5.781-3.337
					L348.842,303.936z"/>
			</g>
			<g>
				<path fill="#7F542E" d="M353.016,306.344c-6.515,3.764-6.155,3.582-6.294,3.582c-0.35,0-0.468-0.471-0.168-0.638l5.78-3.341
					L353.016,306.344z"/>
			</g>
			<g>
				<path fill="#7F542E" d="M357.189,308.751c-6.581,3.8-6.162,3.582-6.294,3.582c-0.336,0-0.48-0.453-0.173-0.637l5.785-3.337
					L357.189,308.751z"/>
			</g>
		</g>
	</g>
	<g>
		<path fill="#8BD0D0" d="M304.978,301.84c-1.218,1.508-1.214,1.576-1.243,1.605c-0.035,0.038,0.002,0.146,0.31,0.579
			c-0.56,0.969-1.011,2.329-0.813,3.375l-0.018,0.002c-0.504-0.293-0.677-0.915-0.677-1.5c0-1.576,1.176-3.448,2.434-4.077
			L304.978,301.84z"/>
		<path fill="#655FBF" d="M352.247,330.633c0.56,0.667,1.12,1.336,1.682,2.004c0.144,0.172-0.005,0.429-0.226,0.39
			c-0.872-0.154-1.745-0.308-2.618-0.462c-0.203-0.04-0.331-0.226-0.356-0.489c-0.053-0.6,0.452-1.397,0.978-1.576
			C351.955,330.416,352.145,330.488,352.247,330.633z"/>
		<path fill="#8BD0D0" d="M313.907,306.007c39.122,22.59,34.018,19.545,33.613,19.545c-0.223-0.021-0.472,0.018-0.74,0.123
			c-0.002,0-0.002,0.002-0.002,0.002c-0.608,0.222-1.217,0.772-1.565,1.237c-0.005,0.002-0.008,0.005-0.008,0.01
			c-0.592,0.731-0.983,1.675-1.081,2.358c-0.083,0.451-0.055,0.919-0.01,1.099c0.03,0.242,0.192,0.571,0.216,0.583
			c0.067,0.134,0.253,0.319,0.361,0.381c-36.076-20.824-35.289-20.348-35.276-20.372c-0.178-0.129-0.311-0.304-0.407-0.513
			c-0.278-0.606-0.193-1.402-0.007-2.04c0.148-0.501,0.389-1.019,0.708-1.492c2.958,1.709,5.919,3.417,8.879,5.126l1.29-1.605
			l-0.096-0.136c-2.82-1.629-5.64-3.257-8.46-4.885c0.478-0.234,1.049-0.335,1.495-0.051
			C313.18,305.588,313.543,305.796,313.907,306.007z"/>
		<path fill="#D1E2EE" d="M348.418,326.081c-0.003,0-0.003-0.003-0.005-0.005c0,0.002,0.002,0.005,0.005,0.01
			C348.486,326.188,348.471,326.174,348.418,326.081z M345.347,331.53c-0.038,0-0.075-0.002-0.113-0.005
			C345.272,331.528,345.31,331.53,345.347,331.53z M351.085,332.564c-1.969-0.347-3.938-0.695-5.906-1.041v-0.003
			c0.028,0,0.041,0.007-0.008-0.003c-0.095-0.013-0.154-0.024-0.268-0.067c-0.015-0.008-0.03-0.013-0.045-0.018
			c-0.167-0.073-0.316-0.187-0.424-0.321c-0.05-0.057-0.059-0.081-0.105-0.147c-0.005-0.003-0.005-0.005-0.005-0.008
			c-0.062-0.106-0.116-0.226-0.158-0.361c-0.007-0.015-0.063-0.235-0.063-0.273c-0.097-0.727,0.061-1.438,0.338-2.112
			c0-0.003,0.003-0.008,0.005-0.011c0.121-0.297,0.309-0.647,0.577-1.033c0.033-0.056,0.186-0.25,0.188-0.251
			c0.405-0.507,1.023-1.057,1.63-1.26c0.296-0.105,0.625-0.12,0.753-0.095c0.014,0,0.096,0.018,0.098,0.018
			c0.083,0.015,0.191,0.058,0.231,0.077c0.214,0.107,0.26,0.162,0.401,0.304c0.029,0.039-0.299-0.354,3.879,4.624
			c-0.12-0.12-0.296-0.15-0.497-0.083c-0.526,0.179-1.031,0.977-0.978,1.576C350.754,332.339,350.882,332.524,351.085,332.564z"/>
		<polygon fill="#4C6E81" points="318.489,311.918 319.781,310.313 319.876,310.448 318.587,312.054 		"/>
		<path fill="#BBEBEF" d="M307.986,301.782c5.39,3.117,5.158,2.955,5.141,2.98c-0.717-0.425-1.606-0.095-2.291,0.386
			c-1.713-0.99-3.43-1.981-5.146-2.971c0.166-0.117,0.341-0.226,0.526-0.32C306.729,301.594,307.482,301.49,307.986,301.782z"/>
		<path fill="#71A7AB" d="M310.836,305.148c0.685-0.48,1.574-0.811,2.291-0.386c0.466,0.268,0.684,0.709,0.78,1.244
			c-0.026-0.015-1.149-0.664-1.174-0.678c-0.421-0.216-0.941-0.133-1.413,0.099C311.16,305.334,311,305.241,310.836,305.148z"/>
		<path fill="#71A7AB" d="M308.337,309.926c-0.035-1.089,0.422-2.283,1.019-3.199v-0.002c0.115,0.067,0.233,0.136,0.351,0.203
			c-0.319,0.474-0.56,0.991-0.708,1.492c-0.186,0.638-0.271,1.434,0.007,2.04c0.096,0.209,0.229,0.384,0.407,0.513l-0.003,0.005
			c0.407,0.235,0.813,0.469,1.22,0.704c-0.534,0.193-1.047,0.215-1.533-0.087C308.533,311.248,308.357,310.589,308.337,309.926z"/>
		<path fill="#8BD0D0" d="M304.988,301.814c0.481-0.243,1.041-0.356,1.503-0.088l0.005,0.013c-0.267,0.089-0.581,0.279-0.805,0.438
			c-0.428-0.245-0.616-0.372-0.695-0.349L304.988,301.814z"/>
		<path fill="#BBEBEF" d="M304.012,308.666c-0.387-0.223-0.63-0.665-0.745-1.108c-0.289-1.212,0.279-2.785,0.943-3.804
			c1.716,0.991,3.43,1.979,5.146,2.971c0,0.025-1.073,1.517-1.019,3.201c0.02,0.663,0.195,1.322,0.76,1.669
			C309.085,311.619,309.242,311.676,304.012,308.666z"/>
		<path fill="#4C6E81" d="M304.21,303.754c-0.038,0.058-0.076,0.12-0.116,0.183c-0.098-0.14-0.195-0.275-0.291-0.416
			C303.939,303.599,304.075,303.676,304.21,303.754z"/>
		<path fill="#5A8694" d="M303.731,303.578c-0.132-0.192,0.011-0.177,0.213-0.058c4.848,2.8,9.697,5.598,14.544,8.397l0.098,0.136
			c-7.093-4.094-13.812-7.976-14.783-8.533c0.096,0.141,0.193,0.276,0.291,0.416c-0.015,0.028-0.032,0.059-0.05,0.088
			C303.939,303.877,303.834,303.727,303.731,303.578z"/>
		<g>
			<path fill="#B0A7C2" d="M356.284,336.155c-0.37-0.11-0.74-0.218-1.109-0.331c-2.712-0.832-5.417-1.687-8.138-2.489
				c-1.282-0.378-2.377-1.101-3.51-1.754c-10.497-6.053-20.986-12.12-31.477-18.184c-0.477-0.275-0.94-0.525-1.538-0.496
				c-0.306,0.016-0.647-0.153-0.931-0.313c-1.409-0.795-2.806-1.609-4.202-2.427c-0.322-0.188-0.72-0.274-0.67-0.848
				c0.019-0.219-0.415-0.476-0.698-0.647c-0.207-0.125-0.579-0.497-0.639-0.809c1.74,0.943,3.39,1.933,5.057,2.771
				c-0.251-1.264,0.061-2.442,0.762-3.637c-1.776-1.04-3.406-1.947-5.147-2.967c0,0-0.207-0.294-0.317-0.456
				c-0.062-0.091-0.069-0.149,0.013-0.136c1.629,0.836,3.464,1.975,5.054,2.883c1.59,0.909,3.063,1.779,4.65,2.693
				c1.611,0.928,3.386,1.955,5.045,2.909c0.31-0.346,0.562-0.734,0.904-1.116c0.377,0.21,0.796,0.44,1.2,0.666
				c-0.414,0.534-0.8,1.032-1.241,1.602c-3.203-1.843-6.418-3.693-9.688-5.576c-0.535,0.893-0.679,1.774-0.333,2.662
				c0.125,0.321,0.504,0.591,0.828,0.78c2.37,1.39,4.755,2.752,7.134,4.124c8.62,4.973,17.243,9.938,25.849,14.934
				c0.578,0.335,1.176,0.429,1.787,0.583c1.331,0.336,2.652,0.708,3.977,1.067c1.443,0.391,2.885,0.781,4.327,1.176
				c0.174,0.048,0.393,0.075,0.501,0.193c0.897,0.986,1.773,1.991,2.656,2.991C356.354,336.055,356.319,336.104,356.284,336.155z"/>
			<path fill="#C5BED1" d="M311.07,305.187c1.322-1.002,2.277-0.778,2.653,0.492c-0.205-0.074-0.371-0.115-0.519-0.19
				c-0.419-0.213-0.828-0.306-1.313-0.167C311.65,305.39,311.346,305.238,311.07,305.187z"/>
		</g>
		<path fill="#71A7AB" d="M303.688,303.442c0.432-0.534,0.858-1.068,1.29-1.603l-0.007-0.016c0.005-0.005,0.01-0.008,0.018-0.01
			l0.007,0.015c0.095-0.028-0.53-0.36,14.785,8.483l-1.292,1.605C303.258,303.12,303.755,303.376,303.688,303.442z"/>
	</g>
</g>
<g>
	<path fill="#899DB9" d="M621.65,104.322l-26.291-15.179c-1.012-0.584-1.925-0.711-2.609-0.464l-0.008-0.005l-0.021,0.013
		c-0.161,0.061-0.304,0.148-0.436,0.251l-3.882,2.241l3.133,6.735v37.129c0,2.111,1.712,4.811,3.823,6.03l22.223,12.83l2.449,5.266
		l3.473-2.173l0.243-0.165c0.903-0.629,1.726-1.123,1.726-2.196v-44.284C625.473,108.241,623.761,105.541,621.65,104.322z"/>
	<g>
		<path fill="#BECBDC" d="M617.207,158.792l-26.291-15.179c-2.111-1.219-3.822-3.918-3.822-6.03V93.298
			c0-2.111,1.711-2.834,3.822-1.616l26.291,15.179c2.111,1.219,3.822,3.918,3.822,6.03v44.284
			C621.029,159.287,619.318,160.01,617.207,158.792z"/>
		<path fill="#899DB9" d="M615.2,122.389l-22.277-12.862c-1.101-0.635-1.993-2.042-1.993-3.143v-7.869
			c0-1.101,0.893-1.478,1.993-0.842l22.277,12.862c1.101,0.636,1.993,2.043,1.993,3.144v7.869
			C617.193,122.647,616.301,123.024,615.2,122.389z"/>
		<polygon fill="#B54689" points="598.307,121.915 590.93,117.655 590.93,113.073 598.307,117.332 		"/>
		<polygon fill="#B54689" points="607.75,127.367 600.373,123.107 600.373,118.524 607.75,122.784 		"/>
		<polygon fill="#B54689" points="617.193,132.819 609.815,128.56 609.815,123.977 617.193,128.236 		"/>
		<polygon fill="#899DB9" points="598.307,128.361 590.93,124.102 590.93,119.519 598.307,123.778 		"/>
		<polygon fill="#899DB9" points="607.75,133.813 600.373,129.554 600.373,124.971 607.75,129.23 		"/>
		<polygon fill="#899DB9" points="617.193,139.265 609.815,135.006 609.815,130.423 617.193,134.682 		"/>
		<polygon fill="#899DB9" points="598.307,134.807 590.93,130.548 590.93,125.965 598.307,130.225 		"/>
		<polygon fill="#899DB9" points="607.75,140.259 600.373,136 600.373,131.417 607.75,135.676 		"/>
		<polygon fill="#899DB9" points="617.193,145.711 609.815,141.452 609.815,136.869 617.193,141.128 		"/>
		<polygon fill="#899DB9" points="598.307,141.253 590.93,136.994 590.93,132.411 598.307,136.671 		"/>
		<polygon fill="#899DB9" points="607.75,146.706 600.373,142.446 600.373,137.863 607.75,142.123 		"/>
		<polygon fill="#899DB9" points="617.193,152.157 609.815,147.898 609.815,143.315 617.193,147.575 		"/>
	</g>
</g>
<path fill="#D6519A" d="M651.912,72.61l1.029,2.679c0.084,0.22,0.248,0.433,0.437,0.569l2.301,1.663
	c0.476,0.344,0.665,1.037,0.321,1.174l-1.665,0.662c-0.137,0.054-0.199,0.21-0.167,0.417l0.394,2.519
	c0.081,0.52-0.416,0.594-0.841,0.125l-2.059-2.271c-0.168-0.186-0.37-0.303-0.539-0.312l-2.058-0.106
	c-0.426-0.022-0.922-0.669-0.841-1.096l0.393-2.065c0.032-0.169-0.029-0.397-0.166-0.609l-1.665-2.584
	c-0.344-0.534-0.154-1.008,0.321-0.803l2.301,0.994c0.188,0.082,0.352,0.057,0.437-0.065l1.028-1.491
	C651.086,71.702,651.7,72.057,651.912,72.61z"/>
<g>
	<polygon fill="#B7A68A" points="661.205,267.826 661.205,278.017 659.182,285.399 659.182,275.208 	"/>
	<polygon fill="#F2E9DA" points="658.811,268.53 658.811,267.121 661.205,267.826 659.182,275.208 646.396,276.38 640.518,269.719 
		643.17,268.185 643.17,269.963 647.614,274.995 657.28,274.112 	"/>
	<polygon fill="#D3C1A1" points="659.182,275.208 659.182,285.399 658.638,285.449 657.28,285.572 647.614,286.458 646.396,286.57 
		646.396,276.38 	"/>
	<polygon fill="#D38C0F" points="658.811,268.53 657.28,274.112 657.28,131.369 658.811,125.787 658.811,267.121 	"/>
	<path fill="#C6BAA7" d="M654.174,108.856l4.637,16.931l-1.53,5.582l-3.678-20.422C653.793,110.25,653.983,109.553,654.174,108.856z
		"/>
	<polygon fill="#A55685" points="658.638,285.449 657.28,290.396 657.28,285.575 657.28,285.572 	"/>
	<polygon fill="#CC7AA7" points="657.28,285.575 657.28,290.396 647.614,291.279 647.614,286.458 657.28,285.572 	"/>
	<polygon fill="#F2A305" points="657.28,131.369 657.28,274.112 647.614,274.995 647.614,132.252 	"/>
	<path fill="#D3C7B4" d="M653.603,110.947l3.678,20.422l-9.666,0.883l2.362-20.974c1.208-0.11,2.414-0.221,3.623-0.331H653.603z"/>
	<path fill="#3F4F5D" d="M654.174,108.856c-0.19,0.697-0.381,1.394-0.571,2.091H653.6l-2.207-12.252L654.174,108.856z"/>
	<path fill="#3F4F5D" d="M651.393,98.695l2.207,12.252c-1.209,0.11-2.415,0.221-3.623,0.331L651.393,98.695z"/>
	<path fill="#5D6571" d="M648.311,109.39l3.082-10.695l-1.416,12.583C649.422,110.649,648.865,110.02,648.311,109.39z"/>
	<polygon fill="#F6BA28" points="643.17,269.963 643.17,268.185 643.17,127.219 647.614,132.252 647.614,274.995 	"/>
	<polygon fill="#EAD9B5" points="646.396,276.38 646.396,286.57 643.173,282.917 640.518,279.91 640.518,269.719 	"/>
	<path fill="#E5D9C6" d="M643.17,127.219l5.141-17.829c0.555,0.629,1.111,1.259,1.666,1.888l-2.362,20.974L643.17,127.219z"/>
	<polygon fill="#E0ADCC" points="643.17,286.244 643.17,282.919 643.173,282.917 646.396,286.57 647.614,286.458 647.614,291.279 	
		"/>
</g>
<g>
	<path fill="#7242F9" d="M379.59,67.261l1.029,1.491c0.085,0.123,0.248,0.147,0.437,0.065l2.301-0.995
		c0.476-0.205,0.665,0.27,0.321,0.803l-1.665,2.584c-0.137,0.212-0.199,0.44-0.167,0.609l0.394,2.065
		c0.081,0.426-0.416,1.074-0.841,1.096l-2.058,0.106c-0.169,0.009-0.371,0.125-0.54,0.312l-2.058,2.27
		c-0.425,0.469-0.922,0.395-0.841-0.125l0.394-2.519c0.032-0.207-0.03-0.362-0.167-0.417l-1.665-0.662
		c-0.344-0.137-0.154-0.831,0.321-1.174l2.301-1.663c0.188-0.136,0.352-0.349,0.437-0.569l1.029-2.679
		C378.764,67.308,379.378,66.953,379.59,67.261z"/>
	<g>
		<path fill="#D2448D" d="M400.439,111.547l-1.811,1.047l-2.323,1.34c0.333-0.192,0.624-0.562,0.744-1.163
			c0.214-1.068-0.189-2.347-0.744-3.308l-12.044-20.862l4.589-2.649l12.044,20.861c0.555,0.961,0.958,2.24,0.744,3.308
			c-0.12,0.602-0.411,0.97-0.744,1.163l-0.43,0.248L400.439,111.547z"/>
		<path fill="#E172B0" d="M396.302,109.464l-12.039-20.865c1.302-1.689,1.847-3.924,1.938-6.075
			c0.157-3.333-0.683-6.832-1.947-9.925c-1.395-3.388-3.426-6.647-5.918-9.352c-2.263-2.447-5.18-4.718-8.328-5.678
			c-2.419-0.729-4.579-0.563-6.287,0.425c-1.689,0.969-2.927,2.751-3.509,5.235c-0.747,3.204-0.23,6.878,0.758,10.045
			c1.089,3.508,2.898,6.906,5.133,9.795c2.05,2.65,4.662,5.124,7.617,6.657c1.911,0.997,4.117,1.643,6.24,1.357l12.039,20.865
			c0.406,0.692,0.951,1.357,1.598,1.819c0.674,0.489,1.569,0.822,2.28,0.416l0.425-0.25c0.342-0.194,0.628-0.563,0.748-1.163
			C397.262,111.699,396.865,110.424,396.302,109.464z M381.363,83.253c-0.11,0.24-0.249,0.461-0.396,0.674
			c-0.813,1.182-1.976,1.846-3.407,1.976c-1.976,0.166-4.043-0.813-5.649-1.967c-4.146-2.991-7.405-8.641-7.922-13.719
			c-0.203-1.976-0.009-4.256,1.126-5.881c0.813-1.172,1.977-1.847,3.407-1.967c0.259-0.018,0.517-0.018,0.785-0.009
			c1.727,0.102,3.471,0.97,4.865,1.976c4.146,2.982,7.404,8.642,7.921,13.719C382.269,79.773,382.148,81.712,381.363,83.253z"/>
		<path fill="#D2448D" d="M368.261,55.37c0.016-0.009,0.031-0.019,0.048-0.028c1.518-0.876,3.565-1.198,6.092-0.477
			c3.178,0.906,6.141,3.18,8.422,5.627c2.522,2.708,4.58,5.977,5.981,9.37c1.283,3.106,2.135,6.63,1.991,9.974
			c-0.094,2.169-0.633,4.417-1.944,6.116l-4.589,2.649c1.307-1.693,1.845-3.929,1.942-6.082c0.149-3.325-0.687-6.831-1.955-9.925
			c-1.388-3.386-3.425-6.643-5.915-9.344c-2.256-2.447-5.182-4.723-8.326-5.679c-2.416-0.735-4.583-0.564-6.288,0.419v0
			C365.233,57.118,366.747,56.243,368.261,55.37z"/>
		<path fill="#D2448D" d="M381.363,83.253c-0.11,0.24-0.249,0.461-0.396,0.674c-0.813,1.182-1.976,1.846-3.407,1.976
			c-1.976,0.166-4.043-0.813-5.649-1.967c-4.146-2.991-7.405-8.641-7.922-13.719c-0.203-1.976-0.009-4.256,1.126-5.881
			c0.813-1.172,1.977-1.847,3.407-1.967c0.259-0.018,0.517-0.018,0.785-0.009c-0.545,1.09-0.804,2.4-0.804,3.841
			c0,4.312,2.308,9.712,6.075,13.452c1.062,1.053,2.243,1.976,3.582,2.659C379.157,82.82,380.256,83.189,381.363,83.253z"/>
		<path opacity="0.5" fill="#9ED2E9" d="M381.363,83.253c-1.107-0.064-2.206-0.434-3.203-0.941
			c-1.339-0.684-2.521-1.606-3.582-2.659c-3.768-3.739-6.075-9.14-6.075-13.452c0-1.44,0.259-2.751,0.804-3.841
			c1.727,0.102,3.471,0.97,4.865,1.976c4.146,2.982,7.404,8.642,7.921,13.719C382.269,79.773,382.148,81.712,381.363,83.253z"/>
	</g>
</g>
</svg>
